<svg width="1231" height="60" viewBox="0 0 1231 60" fill="none" xmlns="http://www.w3.org/2000/svg">
<path d="M5.92881 42.848H12.3688V25.943C12.3688 25.115 12.3918 24.2487 12.4378 23.344L8.64281 26.495C8.39748 26.6943 8.15215 26.84 7.90681 26.932C7.66148 27.0087 7.42381 27.047 7.19381 27.047C6.79515 27.047 6.43481 26.9627 6.11281 26.794C5.80615 26.61 5.57615 26.4183 5.42281 26.219L3.16881 23.229L13.6108 14.466H19.4988V42.848H25.0188V48H5.92881V42.848ZM40.6624 14.121C42.3184 14.121 43.8057 14.3663 45.1244 14.857C46.4584 15.3323 47.5931 15.9993 48.5284 16.858C49.4637 17.7167 50.1767 18.744 50.6674 19.94C51.1734 21.1207 51.4264 22.424 51.4264 23.85C51.4264 25.0767 51.2501 26.2113 50.8974 27.254C50.5601 28.2967 50.0924 29.2933 49.4944 30.244C48.8964 31.1793 48.1987 32.0917 47.4014 32.981C46.6194 33.855 45.7837 34.7443 44.8944 35.649L38.3394 42.365C39.1827 42.1197 40.0107 41.928 40.8234 41.79C41.6514 41.6367 42.4257 41.56 43.1464 41.56H49.4024C50.1691 41.56 50.7747 41.7747 51.2194 42.204C51.6641 42.618 51.8864 43.17 51.8864 43.86V48H28.3344V45.7C28.3344 45.2553 28.4264 44.78 28.6104 44.274C28.7944 43.768 29.1164 43.308 29.5764 42.894L39.2364 33.165C40.0644 32.337 40.7851 31.5473 41.3984 30.796C42.0117 30.0447 42.5177 29.3087 42.9164 28.588C43.3151 27.852 43.6141 27.1237 43.8134 26.403C44.0127 25.667 44.1124 24.8927 44.1124 24.08C44.1124 22.746 43.7904 21.7263 43.1464 21.021C42.5177 20.3003 41.5517 19.94 40.2484 19.94C39.7117 19.94 39.2211 20.0167 38.7764 20.17C38.3317 20.3233 37.9331 20.5303 37.5804 20.791C37.2277 21.0517 36.9211 21.3583 36.6604 21.711C36.4151 22.0637 36.2157 22.447 36.0624 22.861C35.8171 23.551 35.5027 24.0493 35.1194 24.356C34.7514 24.6627 34.2454 24.816 33.6014 24.816C33.4481 24.816 33.2794 24.8083 33.0954 24.793C32.9267 24.7777 32.7504 24.7547 32.5664 24.724L28.7944 24.057C29.0397 22.3857 29.5074 20.929 30.1974 19.687C30.9027 18.445 31.7691 17.41 32.7964 16.582C33.8391 15.754 35.0274 15.1407 36.3614 14.742C37.6954 14.328 39.1291 14.121 40.6624 14.121ZM79.26 31.233C79.26 34.1617 78.9457 36.6993 78.317 38.846C77.6883 40.9927 76.8143 42.7713 75.695 44.182C74.591 45.5927 73.2723 46.643 71.739 47.333C70.221 48.023 68.5727 48.368 66.794 48.368C65.0153 48.368 63.367 48.023 61.849 47.333C60.3463 46.643 59.043 45.5927 57.939 44.182C56.835 42.7713 55.9687 40.9927 55.34 38.846C54.7267 36.6993 54.42 34.1617 54.42 31.233C54.42 28.3043 54.7267 25.7667 55.34 23.62C55.9687 21.4733 56.835 19.6947 57.939 18.284C59.043 16.8733 60.3463 15.8307 61.849 15.156C63.367 14.466 65.0153 14.121 66.794 14.121C68.5727 14.121 70.221 14.466 71.739 15.156C73.2723 15.8307 74.591 16.8733 75.695 18.284C76.8143 19.6947 77.6883 21.4733 78.317 23.62C78.9457 25.7667 79.26 28.3043 79.26 31.233ZM71.9 31.233C71.9 28.9177 71.7543 27.024 71.463 25.552C71.1717 24.0647 70.7807 22.8993 70.29 22.056C69.8147 21.2127 69.2703 20.6377 68.657 20.331C68.0437 20.009 67.4227 19.848 66.794 19.848C66.1653 19.848 65.5443 20.009 64.931 20.331C64.333 20.6377 63.7963 21.2127 63.321 22.056C62.861 22.8993 62.4853 24.0647 62.194 25.552C61.918 27.024 61.78 28.9177 61.78 31.233C61.78 33.5637 61.918 35.465 62.194 36.937C62.4853 38.409 62.861 39.5743 63.321 40.433C63.7963 41.2763 64.333 41.859 64.931 42.181C65.5443 42.4877 66.1653 42.641 66.794 42.641C67.4227 42.641 68.0437 42.4877 68.657 42.181C69.2703 41.859 69.8147 41.2763 70.29 40.433C70.7807 39.5743 71.1717 38.409 71.463 36.937C71.7543 35.465 71.9 33.5637 71.9 31.233ZM105.944 31.233C105.944 34.1617 105.629 36.6993 105.001 38.846C104.372 40.9927 103.498 42.7713 102.379 44.182C101.275 45.5927 99.9559 46.643 98.4226 47.333C96.9046 48.023 95.2563 48.368 93.4776 48.368C91.6989 48.368 90.0506 48.023 88.5326 47.333C87.0299 46.643 85.7266 45.5927 84.6226 44.182C83.5186 42.7713 82.6523 40.9927 82.0236 38.846C81.4103 36.6993 81.1036 34.1617 81.1036 31.233C81.1036 28.3043 81.4103 25.7667 82.0236 23.62C82.6523 21.4733 83.5186 19.6947 84.6226 18.284C85.7266 16.8733 87.0299 15.8307 88.5326 15.156C90.0506 14.466 91.6989 14.121 93.4776 14.121C95.2563 14.121 96.9046 14.466 98.4226 15.156C99.9559 15.8307 101.275 16.8733 102.379 18.284C103.498 19.6947 104.372 21.4733 105.001 23.62C105.629 25.7667 105.944 28.3043 105.944 31.233ZM98.5836 31.233C98.5836 28.9177 98.4379 27.024 98.1466 25.552C97.8553 24.0647 97.4643 22.8993 96.9736 22.056C96.4983 21.2127 95.9539 20.6377 95.3406 20.331C94.7273 20.009 94.1063 19.848 93.4776 19.848C92.8489 19.848 92.2279 20.009 91.6146 20.331C91.0166 20.6377 90.4799 21.2127 90.0046 22.056C89.5446 22.8993 89.1689 24.0647 88.8776 25.552C88.6016 27.024 88.4636 28.9177 88.4636 31.233C88.4636 33.5637 88.6016 35.465 88.8776 36.937C89.1689 38.409 89.5446 39.5743 90.0046 40.433C90.4799 41.2763 91.0166 41.859 91.6146 42.181C92.2279 42.4877 92.8489 42.641 93.4776 42.641C94.1063 42.641 94.7273 42.4877 95.3406 42.181C95.9539 41.859 96.4983 41.2763 96.9736 40.433C97.4643 39.5743 97.8553 38.409 98.1466 36.937C98.4379 35.465 98.5836 33.5637 98.5836 31.233Z" fill="#1E212C"/>
<path d="M126.264 26.328C126.216 26.408 126.165 26.4693 126.112 26.512C126.059 26.5493 125.989 26.568 125.904 26.568C125.813 26.568 125.707 26.5227 125.584 26.432C125.467 26.3413 125.315 26.2427 125.128 26.136C124.947 26.024 124.725 25.9227 124.464 25.832C124.208 25.7413 123.896 25.696 123.528 25.696C123.181 25.696 122.875 25.744 122.608 25.84C122.341 25.9307 122.117 26.056 121.936 26.216C121.76 26.376 121.627 26.5653 121.536 26.784C121.445 26.9973 121.4 27.2293 121.4 27.48C121.4 27.8 121.477 28.0667 121.632 28.28C121.792 28.488 122 28.6667 122.256 28.816C122.517 28.9653 122.811 29.096 123.136 29.208C123.467 29.3147 123.803 29.4267 124.144 29.544C124.491 29.6613 124.827 29.7947 125.152 29.944C125.483 30.088 125.776 30.272 126.032 30.496C126.293 30.72 126.501 30.9947 126.656 31.32C126.816 31.6453 126.896 32.0453 126.896 32.52C126.896 33.0213 126.811 33.4933 126.64 33.936C126.469 34.3733 126.219 34.7547 125.888 35.08C125.563 35.4053 125.16 35.6613 124.68 35.848C124.205 36.0347 123.664 36.128 123.056 36.128C122.315 36.128 121.637 35.9947 121.024 35.728C120.416 35.456 119.896 35.0907 119.464 34.632L119.912 33.896C119.955 33.8373 120.005 33.7893 120.064 33.752C120.128 33.7093 120.197 33.688 120.272 33.688C120.384 33.688 120.512 33.7493 120.656 33.872C120.8 33.9893 120.979 34.12 121.192 34.264C121.411 34.408 121.672 34.5413 121.976 34.664C122.285 34.7813 122.661 34.84 123.104 34.84C123.472 34.84 123.8 34.7893 124.088 34.688C124.376 34.5867 124.619 34.4453 124.816 34.264C125.019 34.0773 125.173 33.856 125.28 33.6C125.387 33.344 125.44 33.0587 125.44 32.744C125.44 32.3973 125.36 32.1147 125.2 31.896C125.045 31.672 124.84 31.4853 124.584 31.336C124.328 31.1867 124.035 31.0613 123.704 30.96C123.379 30.8533 123.043 30.7467 122.696 30.64C122.355 30.528 122.019 30.4 121.688 30.256C121.363 30.112 121.072 29.9253 120.816 29.696C120.56 29.4667 120.352 29.1813 120.192 28.84C120.037 28.4933 119.96 28.0667 119.96 27.56C119.96 27.1547 120.037 26.7627 120.192 26.384C120.352 26.0053 120.581 25.6693 120.88 25.376C121.179 25.0827 121.547 24.848 121.984 24.672C122.427 24.496 122.933 24.408 123.504 24.408C124.144 24.408 124.728 24.5093 125.256 24.712C125.784 24.9147 126.245 25.208 126.64 25.592L126.264 26.328ZM131.108 36.128C130.468 36.128 129.975 35.9493 129.628 35.592C129.287 35.2347 129.116 34.72 129.116 34.048V29.088H128.14C128.055 29.088 127.983 29.064 127.924 29.016C127.866 28.9627 127.836 28.8827 127.836 28.776V28.208L129.164 28.04L129.492 25.536C129.503 25.456 129.538 25.392 129.596 25.344C129.655 25.2907 129.73 25.264 129.82 25.264H130.54V28.056H132.86V29.088H130.54V33.952C130.54 34.2933 130.623 34.5467 130.788 34.712C130.954 34.8773 131.167 34.96 131.428 34.96C131.578 34.96 131.706 34.9413 131.812 34.904C131.924 34.8613 132.02 34.816 132.1 34.768C132.18 34.72 132.247 34.6773 132.3 34.64C132.359 34.5973 132.41 34.576 132.452 34.576C132.527 34.576 132.594 34.6213 132.652 34.712L133.068 35.392C132.823 35.6213 132.527 35.8027 132.18 35.936C131.834 36.064 131.476 36.128 131.108 36.128ZM135.853 27.896V33.064C135.853 33.6773 135.994 34.152 136.277 34.488C136.56 34.824 136.986 34.992 137.557 34.992C137.973 34.992 138.365 34.8933 138.733 34.696C139.101 34.4987 139.44 34.224 139.749 33.872V27.896H141.173V36H140.325C140.122 36 139.994 35.9013 139.941 35.704L139.829 34.832C139.477 35.2213 139.082 35.536 138.645 35.776C138.208 36.0107 137.706 36.128 137.141 36.128C136.698 36.128 136.306 36.056 135.965 35.912C135.629 35.7627 135.346 35.5547 135.117 35.288C134.888 35.0213 134.714 34.6987 134.597 34.32C134.485 33.9413 134.429 33.5227 134.429 33.064V27.896H135.853ZM149.216 36C149.013 36 148.885 35.9013 148.832 35.704L148.704 34.72C148.357 35.1413 147.96 35.48 147.512 35.736C147.069 35.9867 146.56 36.112 145.984 36.112C145.52 36.112 145.098 36.024 144.72 35.848C144.341 35.6667 144.018 35.4027 143.752 35.056C143.485 34.7093 143.28 34.2773 143.136 33.76C142.992 33.2427 142.92 32.648 142.92 31.976C142.92 31.3787 143 30.824 143.16 30.312C143.32 29.7947 143.549 29.3467 143.848 28.968C144.152 28.5893 144.52 28.2933 144.952 28.08C145.384 27.8613 145.874 27.752 146.424 27.752C146.92 27.752 147.344 27.8373 147.696 28.008C148.048 28.1733 148.362 28.408 148.64 28.712V24.216H150.064V36H149.216ZM146.456 34.96C146.92 34.96 147.325 34.8533 147.672 34.64C148.024 34.4267 148.346 34.1253 148.64 33.736V29.816C148.378 29.464 148.09 29.2187 147.776 29.08C147.466 28.936 147.122 28.864 146.744 28.864C145.986 28.864 145.405 29.1333 145 29.672C144.594 30.2107 144.392 30.9787 144.392 31.976C144.392 32.504 144.437 32.9573 144.528 33.336C144.618 33.7093 144.752 34.0187 144.928 34.264C145.104 34.504 145.32 34.68 145.576 34.792C145.832 34.904 146.125 34.96 146.456 34.96ZM155.657 27.768C156.143 27.768 156.591 27.8507 157.001 28.016C157.412 28.176 157.767 28.4107 158.065 28.72C158.364 29.024 158.596 29.4027 158.761 29.856C158.932 30.304 159.017 30.816 159.017 31.392C159.017 31.616 158.993 31.7653 158.945 31.84C158.897 31.9147 158.807 31.952 158.673 31.952H153.281C153.292 32.464 153.361 32.9093 153.489 33.288C153.617 33.6667 153.793 33.984 154.017 34.24C154.241 34.4907 154.508 34.68 154.817 34.808C155.127 34.9307 155.473 34.992 155.857 34.992C156.215 34.992 156.521 34.952 156.777 34.872C157.039 34.7867 157.263 34.696 157.449 34.6C157.636 34.504 157.791 34.416 157.913 34.336C158.041 34.2507 158.151 34.208 158.241 34.208C158.359 34.208 158.449 34.2533 158.513 34.344L158.913 34.864C158.737 35.0773 158.527 35.264 158.281 35.424C158.036 35.5787 157.772 35.7067 157.489 35.808C157.212 35.9093 156.924 35.984 156.625 36.032C156.327 36.0853 156.031 36.112 155.737 36.112C155.177 36.112 154.66 36.0187 154.185 35.832C153.716 35.64 153.308 35.3627 152.961 35C152.62 34.632 152.353 34.1787 152.161 33.64C151.969 33.1013 151.873 32.4827 151.873 31.784C151.873 31.2187 151.959 30.6907 152.129 30.2C152.305 29.7093 152.556 29.2853 152.881 28.928C153.207 28.5653 153.604 28.2827 154.073 28.08C154.543 27.872 155.071 27.768 155.657 27.768ZM155.689 28.816C155.001 28.816 154.46 29.016 154.065 29.416C153.671 29.8107 153.425 30.36 153.329 31.064H157.737C157.737 30.7333 157.692 30.432 157.601 30.16C157.511 29.8827 157.377 29.6453 157.201 29.448C157.025 29.2453 156.809 29.0907 156.553 28.984C156.303 28.872 156.015 28.816 155.689 28.816ZM160.84 36V27.896H161.688C161.891 27.896 162.019 27.9947 162.072 28.192L162.184 29.072C162.536 28.6827 162.928 28.368 163.36 28.128C163.797 27.888 164.301 27.768 164.872 27.768C165.315 27.768 165.704 27.8427 166.04 27.992C166.381 28.136 166.664 28.344 166.888 28.616C167.117 28.8827 167.291 29.2053 167.408 29.584C167.525 29.9627 167.584 30.3813 167.584 30.84V36H166.16V30.84C166.16 30.2267 166.019 29.752 165.736 29.416C165.459 29.0747 165.032 28.904 164.456 28.904C164.035 28.904 163.64 29.0053 163.272 29.208C162.909 29.4107 162.573 29.6853 162.264 30.032V36H160.84ZM172.187 36.128C171.547 36.128 171.053 35.9493 170.707 35.592C170.365 35.2347 170.195 34.72 170.195 34.048V29.088H169.219C169.133 29.088 169.061 29.064 169.003 29.016C168.944 28.9627 168.915 28.8827 168.915 28.776V28.208L170.243 28.04L170.571 25.536C170.581 25.456 170.616 25.392 170.674 25.344C170.733 25.2907 170.808 25.264 170.899 25.264H171.619V28.056H173.939V29.088H171.619V33.952C171.619 34.2933 171.701 34.5467 171.867 34.712C172.032 34.8773 172.245 34.96 172.507 34.96C172.656 34.96 172.784 34.9413 172.891 34.904C173.003 34.8613 173.099 34.816 173.179 34.768C173.259 34.72 173.325 34.6773 173.379 34.64C173.437 34.5973 173.488 34.576 173.531 34.576C173.605 34.576 173.672 34.6213 173.731 34.712L174.147 35.392C173.901 35.6213 173.605 35.8027 173.259 35.936C172.912 36.064 172.555 36.128 172.187 36.128ZM180.339 29.232C180.275 29.3493 180.177 29.408 180.043 29.408C179.963 29.408 179.873 29.3787 179.771 29.32C179.67 29.2613 179.545 29.1973 179.395 29.128C179.251 29.0533 179.078 28.9867 178.875 28.928C178.673 28.864 178.433 28.832 178.155 28.832C177.915 28.832 177.699 28.864 177.507 28.928C177.315 28.9867 177.15 29.0693 177.011 29.176C176.878 29.2827 176.774 29.408 176.699 29.552C176.63 29.6907 176.595 29.8427 176.595 30.008C176.595 30.216 176.654 30.3893 176.771 30.528C176.894 30.6667 177.054 30.7867 177.251 30.888C177.449 30.9893 177.673 31.08 177.923 31.16C178.174 31.2347 178.43 31.3173 178.691 31.408C178.958 31.4933 179.217 31.5893 179.467 31.696C179.718 31.8027 179.942 31.936 180.139 32.096C180.337 32.256 180.494 32.4533 180.611 32.688C180.734 32.9173 180.795 33.1947 180.795 33.52C180.795 33.8933 180.729 34.24 180.595 34.56C180.462 34.8747 180.265 35.1493 180.003 35.384C179.742 35.6133 179.422 35.7947 179.043 35.928C178.665 36.0613 178.227 36.128 177.731 36.128C177.166 36.128 176.654 36.0373 176.195 35.856C175.737 35.6693 175.347 35.432 175.027 35.144L175.363 34.6C175.406 34.5307 175.457 34.4773 175.515 34.44C175.574 34.4027 175.651 34.384 175.747 34.384C175.843 34.384 175.945 34.4213 176.051 34.496C176.158 34.5707 176.286 34.6533 176.435 34.744C176.59 34.8347 176.774 34.9173 176.987 34.992C177.206 35.0667 177.478 35.104 177.803 35.104C178.081 35.104 178.323 35.0693 178.531 35C178.739 34.9253 178.913 34.8267 179.051 34.704C179.19 34.5813 179.291 34.44 179.355 34.28C179.425 34.12 179.459 33.9493 179.459 33.768C179.459 33.544 179.398 33.36 179.275 33.216C179.158 33.0667 179.001 32.9413 178.803 32.84C178.606 32.7333 178.379 32.6427 178.123 32.568C177.873 32.488 177.614 32.4053 177.347 32.32C177.086 32.2347 176.827 32.1387 176.571 32.032C176.321 31.92 176.097 31.7813 175.899 31.616C175.702 31.4507 175.542 31.248 175.419 31.008C175.302 30.7627 175.243 30.4667 175.243 30.12C175.243 29.8107 175.307 29.5147 175.435 29.232C175.563 28.944 175.75 28.6933 175.995 28.48C176.241 28.2613 176.542 28.088 176.899 27.96C177.257 27.832 177.665 27.768 178.123 27.768C178.657 27.768 179.134 27.8533 179.555 28.024C179.982 28.1893 180.35 28.4187 180.659 28.712L180.339 29.232ZM188.459 27.76C188.811 27.76 189.139 27.8 189.443 27.88C189.752 27.9547 190.032 28.0667 190.283 28.216H192.483V28.744C192.483 28.92 192.371 29.032 192.147 29.08L191.227 29.208C191.408 29.5547 191.499 29.9413 191.499 30.368C191.499 30.7627 191.421 31.1227 191.267 31.448C191.117 31.768 190.907 32.0427 190.635 32.272C190.368 32.5013 190.048 32.6773 189.675 32.8C189.307 32.9227 188.901 32.984 188.459 32.984C188.08 32.984 187.723 32.9387 187.387 32.848C187.216 32.9547 187.085 33.0693 186.995 33.192C186.909 33.3147 186.867 33.4347 186.867 33.552C186.867 33.744 186.944 33.8907 187.099 33.992C187.253 34.088 187.459 34.1573 187.715 34.2C187.971 34.2427 188.261 34.2693 188.587 34.28C188.912 34.2907 189.243 34.3093 189.579 34.336C189.92 34.3573 190.253 34.3973 190.579 34.456C190.904 34.5147 191.195 34.6107 191.451 34.744C191.707 34.8773 191.912 35.0613 192.067 35.296C192.221 35.5307 192.299 35.8347 192.299 36.208C192.299 36.5547 192.211 36.8907 192.035 37.216C191.864 37.5413 191.616 37.8293 191.291 38.08C190.965 38.336 190.568 38.5387 190.099 38.688C189.629 38.8427 189.099 38.92 188.507 38.92C187.915 38.92 187.395 38.8613 186.947 38.744C186.504 38.6267 186.136 38.4693 185.843 38.272C185.549 38.0747 185.328 37.8453 185.179 37.584C185.035 37.328 184.963 37.0587 184.963 36.776C184.963 36.376 185.088 36.0373 185.339 35.76C185.595 35.4773 185.944 35.2533 186.387 35.088C186.157 34.9813 185.973 34.84 185.835 34.664C185.701 34.4827 185.635 34.2427 185.635 33.944C185.635 33.8267 185.656 33.7067 185.699 33.584C185.741 33.456 185.805 33.3307 185.891 33.208C185.981 33.0853 186.091 32.968 186.219 32.856C186.347 32.744 186.496 32.6453 186.667 32.56C186.267 32.336 185.952 32.04 185.723 31.672C185.499 31.2987 185.387 30.864 185.387 30.368C185.387 29.9733 185.461 29.616 185.611 29.296C185.765 28.9707 185.979 28.696 186.251 28.472C186.523 28.2427 186.845 28.0667 187.219 27.944C187.597 27.8213 188.011 27.76 188.459 27.76ZM190.987 36.44C190.987 36.2373 190.931 36.0747 190.819 35.952C190.707 35.8293 190.555 35.736 190.363 35.672C190.171 35.6027 189.949 35.552 189.699 35.52C189.448 35.488 189.184 35.4667 188.907 35.456C188.629 35.44 188.347 35.424 188.059 35.408C187.771 35.392 187.496 35.3627 187.235 35.32C186.931 35.464 186.683 35.64 186.491 35.848C186.304 36.056 186.211 36.304 186.211 36.592C186.211 36.7733 186.256 36.9413 186.347 37.096C186.443 37.256 186.587 37.392 186.779 37.504C186.971 37.6213 187.211 37.712 187.499 37.776C187.792 37.8453 188.136 37.88 188.531 37.88C188.915 37.88 189.259 37.8453 189.562 37.776C189.867 37.7067 190.123 37.608 190.331 37.48C190.544 37.352 190.707 37.2 190.819 37.024C190.931 36.848 190.987 36.6533 190.987 36.44ZM188.459 32.04C188.747 32.04 189 32 189.219 31.92C189.443 31.84 189.629 31.728 189.779 31.584C189.928 31.44 190.04 31.2693 190.115 31.072C190.189 30.8693 190.227 30.648 190.227 30.408C190.227 29.912 190.075 29.5173 189.771 29.224C189.472 28.9307 189.035 28.784 188.459 28.784C187.888 28.784 187.451 28.9307 187.147 29.224C186.848 29.5173 186.699 29.912 186.699 30.408C186.699 30.648 186.736 30.8693 186.811 31.072C186.891 31.2693 187.005 31.44 187.155 31.584C187.304 31.728 187.488 31.84 187.707 31.92C187.925 32 188.176 32.04 188.459 32.04ZM193.902 36V27.896H194.718C194.873 27.896 194.98 27.9253 195.038 27.984C195.097 28.0427 195.137 28.144 195.158 28.288L195.254 29.552C195.532 28.9867 195.873 28.5467 196.278 28.232C196.689 27.912 197.169 27.752 197.718 27.752C197.942 27.752 198.145 27.7787 198.326 27.832C198.508 27.88 198.676 27.9493 198.83 28.04L198.646 29.104C198.609 29.2373 198.526 29.304 198.398 29.304C198.324 29.304 198.209 29.28 198.054 29.232C197.9 29.1787 197.684 29.152 197.406 29.152C196.91 29.152 196.494 29.296 196.158 29.584C195.828 29.872 195.55 30.2907 195.326 30.84V36H193.902ZM206.011 36H205.379C205.24 36 205.128 35.9787 205.043 35.936C204.957 35.8933 204.901 35.8027 204.875 35.664L204.715 34.912C204.501 35.104 204.293 35.2773 204.091 35.432C203.888 35.5813 203.675 35.7093 203.451 35.816C203.227 35.9173 202.987 35.9947 202.731 36.048C202.48 36.1013 202.2 36.128 201.891 36.128C201.576 36.128 201.28 36.0853 201.003 36C200.731 35.9093 200.493 35.776 200.291 35.6C200.088 35.424 199.925 35.2027 199.803 34.936C199.685 34.664 199.627 34.344 199.627 33.976C199.627 33.656 199.715 33.3493 199.891 33.056C200.067 32.7573 200.349 32.4933 200.739 32.264C201.133 32.0347 201.648 31.848 202.283 31.704C202.917 31.5547 203.693 31.4693 204.611 31.448V30.816C204.611 30.1867 204.475 29.712 204.203 29.392C203.936 29.0667 203.539 28.904 203.011 28.904C202.664 28.904 202.371 28.9493 202.131 29.04C201.896 29.1253 201.691 29.224 201.515 29.336C201.344 29.4427 201.195 29.5413 201.067 29.632C200.944 29.7173 200.821 29.76 200.699 29.76C200.603 29.76 200.517 29.736 200.443 29.688C200.373 29.6347 200.317 29.5707 200.275 29.496L200.019 29.04C200.467 28.608 200.949 28.2853 201.467 28.072C201.984 27.8587 202.557 27.752 203.187 27.752C203.64 27.752 204.043 27.8267 204.395 27.976C204.747 28.1253 205.043 28.3333 205.283 28.6C205.523 28.8667 205.704 29.1893 205.827 29.568C205.949 29.9467 206.011 30.3627 206.011 30.816V36ZM202.315 35.128C202.565 35.128 202.795 35.104 203.003 35.056C203.211 35.0027 203.405 34.9307 203.587 34.84C203.773 34.744 203.949 34.6293 204.115 34.496C204.285 34.3627 204.451 34.2107 204.611 34.04V32.352C203.955 32.3733 203.397 32.4267 202.939 32.512C202.48 32.592 202.107 32.6987 201.819 32.832C201.531 32.9653 201.32 33.1227 201.187 33.304C201.059 33.4853 200.995 33.688 200.995 33.912C200.995 34.1253 201.029 34.3093 201.099 34.464C201.168 34.6187 201.261 34.7467 201.379 34.848C201.496 34.944 201.635 35.016 201.795 35.064C201.955 35.1067 202.128 35.128 202.315 35.128ZM213.872 36C213.669 36 213.541 35.9013 213.488 35.704L213.36 34.72C213.013 35.1413 212.616 35.48 212.168 35.736C211.725 35.9867 211.216 36.112 210.64 36.112C210.176 36.112 209.755 36.024 209.376 35.848C208.997 35.6667 208.675 35.4027 208.408 35.056C208.141 34.7093 207.936 34.2773 207.792 33.76C207.648 33.2427 207.576 32.648 207.576 31.976C207.576 31.3787 207.656 30.824 207.816 30.312C207.976 29.7947 208.205 29.3467 208.504 28.968C208.808 28.5893 209.176 28.2933 209.608 28.08C210.04 27.8613 210.531 27.752 211.08 27.752C211.576 27.752 212 27.8373 212.352 28.008C212.704 28.1733 213.019 28.408 213.296 28.712V24.216H214.72V36H213.872ZM211.112 34.96C211.576 34.96 211.981 34.8533 212.328 34.64C212.68 34.4267 213.003 34.1253 213.296 33.736V29.816C213.035 29.464 212.747 29.2187 212.432 29.08C212.123 28.936 211.779 28.864 211.4 28.864C210.643 28.864 210.061 29.1333 209.656 29.672C209.251 30.2107 209.048 30.9787 209.048 31.976C209.048 32.504 209.093 32.9573 209.184 33.336C209.275 33.7093 209.408 34.0187 209.584 34.264C209.76 34.504 209.976 34.68 210.232 34.792C210.488 34.904 210.781 34.96 211.112 34.96ZM218.338 27.896V33.064C218.338 33.6773 218.479 34.152 218.762 34.488C219.044 34.824 219.471 34.992 220.042 34.992C220.458 34.992 220.85 34.8933 221.218 34.696C221.586 34.4987 221.924 34.224 222.234 33.872V27.896H223.658V36H222.81C222.607 36 222.479 35.9013 222.426 35.704L222.314 34.832C221.962 35.2213 221.567 35.536 221.13 35.776C220.692 36.0107 220.191 36.128 219.626 36.128C219.183 36.128 218.791 36.056 218.45 35.912C218.114 35.7627 217.831 35.5547 217.602 35.288C217.372 35.0213 217.199 34.6987 217.082 34.32C216.97 33.9413 216.914 33.5227 216.914 33.064V27.896H218.338ZM231.948 36H231.316C231.177 36 231.065 35.9787 230.98 35.936C230.895 35.8933 230.839 35.8027 230.812 35.664L230.652 34.912C230.439 35.104 230.231 35.2773 230.028 35.432C229.825 35.5813 229.612 35.7093 229.388 35.816C229.164 35.9173 228.924 35.9947 228.668 36.048C228.417 36.1013 228.137 36.128 227.828 36.128C227.513 36.128 227.217 36.0853 226.94 36C226.668 35.9093 226.431 35.776 226.228 35.6C226.025 35.424 225.863 35.2027 225.74 34.936C225.623 34.664 225.564 34.344 225.564 33.976C225.564 33.656 225.652 33.3493 225.828 33.056C226.004 32.7573 226.287 32.4933 226.676 32.264C227.071 32.0347 227.585 31.848 228.22 31.704C228.855 31.5547 229.631 31.4693 230.548 31.448V30.816C230.548 30.1867 230.412 29.712 230.14 29.392C229.873 29.0667 229.476 28.904 228.948 28.904C228.601 28.904 228.308 28.9493 228.068 29.04C227.833 29.1253 227.628 29.224 227.452 29.336C227.281 29.4427 227.132 29.5413 227.004 29.632C226.881 29.7173 226.759 29.76 226.636 29.76C226.54 29.76 226.455 29.736 226.38 29.688C226.311 29.6347 226.255 29.5707 226.212 29.496L225.956 29.04C226.404 28.608 226.887 28.2853 227.404 28.072C227.921 27.8587 228.495 27.752 229.124 27.752C229.577 27.752 229.98 27.8267 230.332 27.976C230.684 28.1253 230.98 28.3333 231.22 28.6C231.46 28.8667 231.641 29.1893 231.764 29.568C231.887 29.9467 231.948 30.3627 231.948 30.816V36ZM228.252 35.128C228.503 35.128 228.732 35.104 228.94 35.056C229.148 35.0027 229.343 34.9307 229.524 34.84C229.711 34.744 229.887 34.6293 230.052 34.496C230.223 34.3627 230.388 34.2107 230.548 34.04V32.352C229.892 32.3733 229.335 32.4267 228.876 32.512C228.417 32.592 228.044 32.6987 227.756 32.832C227.468 32.9653 227.257 33.1227 227.124 33.304C226.996 33.4853 226.932 33.688 226.932 33.912C226.932 34.1253 226.967 34.3093 227.036 34.464C227.105 34.6187 227.199 34.7467 227.316 34.848C227.433 34.944 227.572 35.016 227.732 35.064C227.892 35.1067 228.065 35.128 228.252 35.128ZM236.562 36.128C235.922 36.128 235.428 35.9493 235.082 35.592C234.74 35.2347 234.57 34.72 234.57 34.048V29.088H233.594C233.508 29.088 233.436 29.064 233.378 29.016C233.319 28.9627 233.29 28.8827 233.29 28.776V28.208L234.618 28.04L234.946 25.536C234.956 25.456 234.991 25.392 235.049 25.344C235.108 25.2907 235.183 25.264 235.274 25.264H235.994V28.056H238.314V29.088H235.994V33.952C235.994 34.2933 236.076 34.5467 236.242 34.712C236.407 34.8773 236.62 34.96 236.882 34.96C237.031 34.96 237.159 34.9413 237.266 34.904C237.378 34.8613 237.474 34.816 237.554 34.768C237.634 34.72 237.7 34.6773 237.754 34.64C237.812 34.5973 237.863 34.576 237.906 34.576C237.98 34.576 238.047 34.6213 238.106 34.712L238.522 35.392C238.276 35.6213 237.98 35.8027 237.634 35.936C237.287 36.064 236.93 36.128 236.562 36.128ZM243.282 27.768C243.768 27.768 244.216 27.8507 244.626 28.016C245.037 28.176 245.392 28.4107 245.69 28.72C245.989 29.024 246.221 29.4027 246.386 29.856C246.557 30.304 246.642 30.816 246.642 31.392C246.642 31.616 246.618 31.7653 246.57 31.84C246.522 31.9147 246.432 31.952 246.298 31.952H240.906C240.917 32.464 240.986 32.9093 241.114 33.288C241.242 33.6667 241.418 33.984 241.642 34.24C241.866 34.4907 242.133 34.68 242.442 34.808C242.752 34.9307 243.098 34.992 243.482 34.992C243.84 34.992 244.146 34.952 244.402 34.872C244.664 34.7867 244.888 34.696 245.074 34.6C245.261 34.504 245.416 34.416 245.538 34.336C245.666 34.2507 245.776 34.208 245.866 34.208C245.984 34.208 246.074 34.2533 246.138 34.344L246.538 34.864C246.362 35.0773 246.152 35.264 245.906 35.424C245.661 35.5787 245.397 35.7067 245.114 35.808C244.837 35.9093 244.549 35.984 244.25 36.032C243.952 36.0853 243.656 36.112 243.362 36.112C242.802 36.112 242.285 36.0187 241.81 35.832C241.341 35.64 240.933 35.3627 240.586 35C240.245 34.632 239.978 34.1787 239.786 33.64C239.594 33.1013 239.498 32.4827 239.498 31.784C239.498 31.2187 239.584 30.6907 239.754 30.2C239.93 29.7093 240.181 29.2853 240.506 28.928C240.832 28.5653 241.229 28.2827 241.698 28.08C242.168 27.872 242.696 27.768 243.282 27.768ZM243.314 28.816C242.626 28.816 242.085 29.016 241.69 29.416C241.296 29.8107 241.05 30.36 240.954 31.064H245.362C245.362 30.7333 245.317 30.432 245.226 30.16C245.136 29.8827 245.002 29.6453 244.826 29.448C244.65 29.2453 244.434 29.0907 244.178 28.984C243.928 28.872 243.64 28.816 243.314 28.816ZM254.169 36C253.966 36 253.838 35.9013 253.785 35.704L253.657 34.72C253.31 35.1413 252.913 35.48 252.465 35.736C252.022 35.9867 251.513 36.112 250.937 36.112C250.473 36.112 250.052 36.024 249.673 35.848C249.294 35.6667 248.972 35.4027 248.705 35.056C248.438 34.7093 248.233 34.2773 248.089 33.76C247.945 33.2427 247.873 32.648 247.873 31.976C247.873 31.3787 247.953 30.824 248.113 30.312C248.273 29.7947 248.502 29.3467 248.801 28.968C249.105 28.5893 249.473 28.2933 249.905 28.08C250.337 27.8613 250.828 27.752 251.377 27.752C251.873 27.752 252.297 27.8373 252.649 28.008C253.001 28.1733 253.316 28.408 253.593 28.712V24.216H255.017V36H254.169ZM251.409 34.96C251.873 34.96 252.278 34.8533 252.625 34.64C252.977 34.4267 253.3 34.1253 253.593 33.736V29.816C253.332 29.464 253.044 29.2187 252.729 29.08C252.42 28.936 252.076 28.864 251.697 28.864C250.94 28.864 250.358 29.1333 249.953 29.672C249.548 30.2107 249.345 30.9787 249.345 31.976C249.345 32.504 249.39 32.9573 249.481 33.336C249.572 33.7093 249.705 34.0187 249.881 34.264C250.057 34.504 250.273 34.68 250.529 34.792C250.785 34.904 251.078 34.96 251.409 34.96Z" fill="#1E212C"/>
<circle cx="327" cy="30" r="4" fill="#FF3F3A"/>
<path d="M410.656 48.368C408.878 48.368 407.252 48.1303 405.78 47.655C404.308 47.1797 403.043 46.5127 401.985 45.654C400.943 44.78 400.13 43.7297 399.547 42.503C398.98 41.2763 398.696 39.9117 398.696 38.409C398.696 37.5043 398.796 36.6533 398.995 35.856C399.21 35.0433 399.54 34.3073 399.984 33.648C400.444 32.9733 401.027 32.3753 401.732 31.854C402.453 31.3327 403.319 30.8957 404.331 30.543C402.798 29.853 401.656 28.8947 400.904 27.668C400.168 26.4413 399.8 24.9693 399.8 23.252C399.8 21.9487 400.069 20.745 400.605 19.641C401.142 18.5217 401.893 17.5557 402.859 16.743C403.825 15.9303 404.968 15.294 406.286 14.834C407.62 14.3587 409.077 14.121 410.656 14.121C412.236 14.121 413.685 14.3587 415.003 14.834C416.337 15.294 417.487 15.9303 418.453 16.743C419.419 17.5557 420.171 18.5217 420.707 19.641C421.244 20.745 421.512 21.9487 421.512 23.252C421.512 24.9693 421.137 26.4413 420.385 27.668C419.634 28.8947 418.499 29.853 416.981 30.543C417.978 30.8957 418.829 31.3327 419.534 31.854C420.255 32.3753 420.838 32.9733 421.282 33.648C421.742 34.3073 422.08 35.0433 422.294 35.856C422.509 36.6533 422.616 37.5043 422.616 38.409C422.616 39.9117 422.325 41.2763 421.742 42.503C421.175 43.7297 420.362 44.78 419.304 45.654C418.262 46.5127 417.004 47.1797 415.532 47.655C414.06 48.1303 412.435 48.368 410.656 48.368ZM410.656 42.986C411.454 42.986 412.144 42.8633 412.726 42.618C413.309 42.3727 413.784 42.043 414.152 41.629C414.536 41.1997 414.812 40.7013 414.98 40.134C415.164 39.5513 415.256 38.9303 415.256 38.271C415.256 37.5503 415.18 36.891 415.026 36.293C414.873 35.695 414.62 35.189 414.267 34.775C413.915 34.3457 413.439 34.016 412.841 33.786C412.259 33.5407 411.53 33.418 410.656 33.418C409.782 33.418 409.046 33.5407 408.448 33.786C407.866 34.016 407.398 34.3457 407.045 34.775C406.693 35.189 406.44 35.695 406.286 36.293C406.133 36.891 406.056 37.5503 406.056 38.271C406.056 38.9303 406.141 39.5513 406.309 40.134C406.493 40.7013 406.769 41.1997 407.137 41.629C407.521 42.043 407.996 42.3727 408.563 42.618C409.146 42.8633 409.844 42.986 410.656 42.986ZM410.656 27.99C411.454 27.99 412.105 27.8597 412.611 27.599C413.117 27.3383 413.516 26.9933 413.807 26.564C414.099 26.1347 414.298 25.644 414.405 25.092C414.513 24.54 414.566 23.9727 414.566 23.39C414.566 22.8687 414.497 22.3627 414.359 21.872C414.221 21.3813 413.991 20.952 413.669 20.584C413.363 20.2007 412.956 19.894 412.45 19.664C411.96 19.434 411.362 19.319 410.656 19.319C409.936 19.319 409.33 19.434 408.839 19.664C408.349 19.894 407.942 20.2007 407.62 20.584C407.314 20.952 407.091 21.3813 406.953 21.872C406.815 22.3627 406.746 22.8687 406.746 23.39C406.746 23.9727 406.8 24.54 406.907 25.092C407.015 25.644 407.214 26.1347 407.505 26.564C407.797 26.9933 408.195 27.3383 408.701 27.599C409.207 27.8597 409.859 27.99 410.656 27.99ZM446.448 34.982H449.898V38.984C449.898 39.3367 449.775 39.6433 449.53 39.904C449.3 40.1647 448.963 40.295 448.518 40.295H446.448V48H440.238V40.295H426.76C426.315 40.295 425.909 40.157 425.541 39.881C425.188 39.605 424.966 39.26 424.874 38.846L424.138 35.327L439.64 14.489H446.448V34.982ZM440.238 26.242C440.238 25.7053 440.253 25.1303 440.284 24.517C440.33 23.8883 440.391 23.2443 440.468 22.585L431.613 34.982H440.238V26.242Z" fill="#1E212C"/>
<path d="M472.472 33.632C472.557 33.632 472.635 33.6667 472.704 33.736L473.312 34.4C472.843 34.944 472.272 35.368 471.6 35.672C470.933 35.976 470.128 36.128 469.184 36.128C468.357 36.128 467.608 35.9867 466.936 35.704C466.264 35.416 465.691 35.016 465.216 34.504C464.741 33.9867 464.373 33.368 464.112 32.648C463.851 31.928 463.72 31.136 463.72 30.272C463.72 29.408 463.859 28.616 464.136 27.896C464.419 27.176 464.813 26.5573 465.32 26.04C465.827 25.5227 466.432 25.1227 467.136 24.84C467.845 24.552 468.627 24.408 469.48 24.408C470.323 24.408 471.048 24.5387 471.656 24.8C472.269 25.0613 472.813 25.416 473.288 25.864L472.784 26.576C472.747 26.6293 472.704 26.6747 472.656 26.712C472.608 26.744 472.539 26.76 472.448 26.76C472.379 26.76 472.304 26.736 472.224 26.688C472.149 26.6347 472.059 26.5707 471.952 26.496C471.845 26.4213 471.72 26.3413 471.576 26.256C471.432 26.1707 471.261 26.0907 471.064 26.016C470.867 25.9413 470.637 25.88 470.376 25.832C470.115 25.7787 469.813 25.752 469.472 25.752C468.859 25.752 468.296 25.8587 467.784 26.072C467.277 26.28 466.84 26.5787 466.472 26.968C466.104 27.3573 465.816 27.832 465.608 28.392C465.405 28.952 465.304 29.5787 465.304 30.272C465.304 30.9867 465.405 31.624 465.608 32.184C465.816 32.744 466.096 33.2187 466.448 33.608C466.805 33.992 467.227 34.2853 467.712 34.488C468.197 34.6907 468.72 34.792 469.28 34.792C469.621 34.792 469.928 34.7733 470.2 34.736C470.472 34.6933 470.723 34.6293 470.952 34.544C471.187 34.4587 471.403 34.352 471.6 34.224C471.803 34.0907 472.005 33.9333 472.208 33.752C472.299 33.672 472.387 33.632 472.472 33.632ZM478.401 27.768C478.993 27.768 479.526 27.8667 480.001 28.064C480.481 28.2613 480.886 28.5413 481.217 28.904C481.553 29.2667 481.809 29.7067 481.985 30.224C482.166 30.736 482.257 31.3093 482.257 31.944C482.257 32.584 482.166 33.16 481.985 33.672C481.809 34.184 481.553 34.6213 481.217 34.984C480.886 35.3467 480.481 35.6267 480.001 35.824C479.526 36.016 478.993 36.112 478.401 36.112C477.809 36.112 477.273 36.016 476.793 35.824C476.318 35.6267 475.913 35.3467 475.577 34.984C475.241 34.6213 474.982 34.184 474.801 33.672C474.62 33.16 474.529 32.584 474.529 31.944C474.529 31.3093 474.62 30.736 474.801 30.224C474.982 29.7067 475.241 29.2667 475.577 28.904C475.913 28.5413 476.318 28.2613 476.793 28.064C477.273 27.8667 477.809 27.768 478.401 27.768ZM478.401 35C479.201 35 479.798 34.7333 480.193 34.2C480.588 33.6613 480.785 32.912 480.785 31.952C480.785 30.9867 480.588 30.2347 480.193 29.696C479.798 29.1573 479.201 28.888 478.401 28.888C477.996 28.888 477.644 28.9573 477.345 29.096C477.046 29.2347 476.796 29.4347 476.593 29.696C476.396 29.9573 476.246 30.28 476.145 30.664C476.049 31.0427 476.001 31.472 476.001 31.952C476.001 32.432 476.049 32.8613 476.145 33.24C476.246 33.6187 476.396 33.9387 476.593 34.2C476.796 34.456 477.046 34.6533 477.345 34.792C477.644 34.9307 477.996 35 478.401 35ZM484.012 36V27.896H484.86C485.062 27.896 485.19 27.9947 485.244 28.192L485.348 29.024C485.646 28.656 485.98 28.3547 486.348 28.12C486.721 27.8853 487.153 27.768 487.644 27.768C488.193 27.768 488.636 27.92 488.972 28.224C489.313 28.528 489.558 28.9387 489.708 29.456C489.82 29.1627 489.966 28.9093 490.148 28.696C490.334 28.4827 490.542 28.3067 490.772 28.168C491.001 28.0293 491.244 27.928 491.5 27.864C491.761 27.8 492.025 27.768 492.292 27.768C492.718 27.768 493.097 27.8373 493.428 27.976C493.764 28.1093 494.046 28.3067 494.276 28.568C494.51 28.8293 494.689 29.152 494.812 29.536C494.934 29.9147 494.996 30.3493 494.996 30.84V36H493.572V30.84C493.572 30.2053 493.433 29.7253 493.156 29.4C492.878 29.0693 492.476 28.904 491.948 28.904C491.713 28.904 491.489 28.9467 491.276 29.032C491.068 29.112 490.884 29.232 490.724 29.392C490.564 29.552 490.436 29.7547 490.34 30C490.249 30.24 490.204 30.52 490.204 30.84V36H488.78V30.84C488.78 30.1893 488.649 29.704 488.388 29.384C488.126 29.064 487.745 28.904 487.244 28.904C486.892 28.904 486.564 29 486.26 29.192C485.961 29.3787 485.686 29.6347 485.436 29.96V36H484.012ZM497.152 38.744V27.896H498C498.203 27.896 498.331 27.9947 498.384 28.192L498.504 29.152C498.851 28.7307 499.246 28.392 499.688 28.136C500.136 27.88 500.651 27.752 501.232 27.752C501.696 27.752 502.118 27.8427 502.496 28.024C502.875 28.2 503.198 28.464 503.464 28.816C503.731 29.1627 503.936 29.5947 504.08 30.112C504.224 30.6293 504.296 31.224 504.296 31.896C504.296 32.4933 504.216 33.0507 504.056 33.568C503.896 34.08 503.667 34.5253 503.368 34.904C503.07 35.2773 502.702 35.5733 502.264 35.792C501.832 36.0053 501.344 36.112 500.8 36.112C500.299 36.112 499.87 36.0293 499.512 35.864C499.16 35.6987 498.848 35.464 498.576 35.16V38.744H497.152ZM500.76 28.904C500.296 28.904 499.888 29.0107 499.536 29.224C499.19 29.4373 498.87 29.7387 498.576 30.128V34.048C498.838 34.4 499.123 34.648 499.432 34.792C499.747 34.936 500.096 35.008 500.48 35.008C501.232 35.008 501.811 34.7387 502.216 34.2C502.622 33.6613 502.824 32.8933 502.824 31.896C502.824 31.368 502.776 30.9147 502.68 30.536C502.59 30.1573 502.456 29.848 502.28 29.608C502.104 29.3627 501.888 29.184 501.632 29.072C501.376 28.96 501.086 28.904 500.76 28.904ZM507.565 24.216V36H506.141V24.216H507.565ZM513.282 27.768C513.768 27.768 514.216 27.8507 514.626 28.016C515.037 28.176 515.392 28.4107 515.69 28.72C515.989 29.024 516.221 29.4027 516.386 29.856C516.557 30.304 516.642 30.816 516.642 31.392C516.642 31.616 516.618 31.7653 516.57 31.84C516.522 31.9147 516.432 31.952 516.298 31.952H510.906C510.917 32.464 510.986 32.9093 511.114 33.288C511.242 33.6667 511.418 33.984 511.642 34.24C511.866 34.4907 512.133 34.68 512.442 34.808C512.752 34.9307 513.098 34.992 513.482 34.992C513.84 34.992 514.146 34.952 514.402 34.872C514.664 34.7867 514.888 34.696 515.074 34.6C515.261 34.504 515.416 34.416 515.538 34.336C515.666 34.2507 515.776 34.208 515.866 34.208C515.984 34.208 516.074 34.2533 516.138 34.344L516.538 34.864C516.362 35.0773 516.152 35.264 515.906 35.424C515.661 35.5787 515.397 35.7067 515.114 35.808C514.837 35.9093 514.549 35.984 514.25 36.032C513.952 36.0853 513.656 36.112 513.362 36.112C512.802 36.112 512.285 36.0187 511.81 35.832C511.341 35.64 510.933 35.3627 510.586 35C510.245 34.632 509.978 34.1787 509.786 33.64C509.594 33.1013 509.498 32.4827 509.498 31.784C509.498 31.2187 509.584 30.6907 509.754 30.2C509.93 29.7093 510.181 29.2853 510.506 28.928C510.832 28.5653 511.229 28.2827 511.698 28.08C512.168 27.872 512.696 27.768 513.282 27.768ZM513.314 28.816C512.626 28.816 512.085 29.016 511.69 29.416C511.296 29.8107 511.05 30.36 510.954 31.064H515.362C515.362 30.7333 515.317 30.432 515.226 30.16C515.136 29.8827 515.002 29.6453 514.826 29.448C514.65 29.2453 514.434 29.0907 514.178 28.984C513.928 28.872 513.64 28.816 513.314 28.816ZM520.921 36.128C520.281 36.128 519.788 35.9493 519.441 35.592C519.1 35.2347 518.929 34.72 518.929 34.048V29.088H517.953C517.868 29.088 517.796 29.064 517.737 29.016C517.678 28.9627 517.649 28.8827 517.649 28.776V28.208L518.977 28.04L519.305 25.536C519.316 25.456 519.35 25.392 519.409 25.344C519.468 25.2907 519.542 25.264 519.633 25.264H520.353V28.056H522.673V29.088H520.353V33.952C520.353 34.2933 520.436 34.5467 520.601 34.712C520.766 34.8773 520.98 34.96 521.241 34.96C521.39 34.96 521.518 34.9413 521.625 34.904C521.737 34.8613 521.833 34.816 521.913 34.768C521.993 34.72 522.06 34.6773 522.113 34.64C522.172 34.5973 522.222 34.576 522.265 34.576C522.34 34.576 522.406 34.6213 522.465 34.712L522.881 35.392C522.636 35.6213 522.34 35.8027 521.993 35.936C521.646 36.064 521.289 36.128 520.921 36.128ZM527.642 27.768C528.127 27.768 528.575 27.8507 528.986 28.016C529.396 28.176 529.751 28.4107 530.05 28.72C530.348 29.024 530.58 29.4027 530.746 29.856C530.916 30.304 531.002 30.816 531.002 31.392C531.002 31.616 530.978 31.7653 530.93 31.84C530.882 31.9147 530.791 31.952 530.658 31.952H525.266C525.276 32.464 525.346 32.9093 525.474 33.288C525.602 33.6667 525.778 33.984 526.002 34.24C526.226 34.4907 526.492 34.68 526.802 34.808C527.111 34.9307 527.458 34.992 527.842 34.992C528.199 34.992 528.506 34.952 528.762 34.872C529.023 34.7867 529.247 34.696 529.434 34.6C529.62 34.504 529.775 34.416 529.898 34.336C530.026 34.2507 530.135 34.208 530.226 34.208C530.343 34.208 530.434 34.2533 530.498 34.344L530.898 34.864C530.722 35.0773 530.511 35.264 530.266 35.424C530.02 35.5787 529.756 35.7067 529.474 35.808C529.196 35.9093 528.908 35.984 528.61 36.032C528.311 36.0853 528.015 36.112 527.722 36.112C527.162 36.112 526.644 36.0187 526.17 35.832C525.7 35.64 525.292 35.3627 524.946 35C524.604 34.632 524.338 34.1787 524.146 33.64C523.954 33.1013 523.858 32.4827 523.858 31.784C523.858 31.2187 523.943 30.6907 524.114 30.2C524.29 29.7093 524.54 29.2853 524.866 28.928C525.191 28.5653 525.588 28.2827 526.058 28.08C526.527 27.872 527.055 27.768 527.642 27.768ZM527.674 28.816C526.986 28.816 526.444 29.016 526.05 29.416C525.655 29.8107 525.41 30.36 525.314 31.064H529.722C529.722 30.7333 529.676 30.432 529.586 30.16C529.495 29.8827 529.362 29.6453 529.186 29.448C529.01 29.2453 528.794 29.0907 528.538 28.984C528.287 28.872 527.999 28.816 527.674 28.816ZM538.528 36C538.326 36 538.198 35.9013 538.144 35.704L538.016 34.72C537.67 35.1413 537.272 35.48 536.824 35.736C536.382 35.9867 535.872 36.112 535.296 36.112C534.832 36.112 534.411 36.024 534.032 35.848C533.654 35.6667 533.331 35.4027 533.064 35.056C532.798 34.7093 532.592 34.2773 532.448 33.76C532.304 33.2427 532.232 32.648 532.232 31.976C532.232 31.3787 532.312 30.824 532.472 30.312C532.632 29.7947 532.862 29.3467 533.16 28.968C533.464 28.5893 533.832 28.2933 534.264 28.08C534.696 27.8613 535.187 27.752 535.736 27.752C536.232 27.752 536.656 27.8373 537.008 28.008C537.36 28.1733 537.675 28.408 537.952 28.712V24.216H539.376V36H538.528ZM535.768 34.96C536.232 34.96 536.638 34.8533 536.984 34.64C537.336 34.4267 537.659 34.1253 537.952 33.736V29.816C537.691 29.464 537.403 29.2187 537.088 29.08C536.779 28.936 536.435 28.864 536.056 28.864C535.299 28.864 534.718 29.1333 534.312 29.672C533.907 30.2107 533.704 30.9787 533.704 31.976C533.704 32.504 533.75 32.9573 533.84 33.336C533.931 33.7093 534.064 34.0187 534.24 34.264C534.416 34.504 534.632 34.68 534.888 34.792C535.144 34.904 535.438 34.96 535.768 34.96ZM550.384 29.336C550.341 29.3947 550.298 29.44 550.256 29.472C550.213 29.504 550.152 29.52 550.072 29.52C549.992 29.52 549.904 29.488 549.808 29.424C549.717 29.3547 549.6 29.28 549.456 29.2C549.312 29.12 549.136 29.048 548.928 28.984C548.725 28.9147 548.474 28.88 548.176 28.88C547.781 28.88 547.432 28.952 547.128 29.096C546.824 29.2347 546.568 29.4373 546.36 29.704C546.157 29.9707 546.002 30.2933 545.896 30.672C545.794 31.0507 545.743 31.4747 545.743 31.944C545.743 32.4347 545.8 32.872 545.912 33.256C546.024 33.6347 546.181 33.9547 546.384 34.216C546.586 34.472 546.832 34.6693 547.12 34.808C547.413 34.9413 547.741 35.008 548.104 35.008C548.45 35.008 548.736 34.968 548.96 34.888C549.184 34.8027 549.37 34.7093 549.52 34.608C549.669 34.5067 549.792 34.416 549.888 34.336C549.984 34.2507 550.08 34.208 550.176 34.208C550.298 34.208 550.389 34.2533 550.448 34.344L550.848 34.864C550.496 35.296 550.056 35.6133 549.528 35.816C549 36.0133 548.442 36.112 547.856 36.112C547.349 36.112 546.877 36.0187 546.44 35.832C546.008 35.6453 545.632 35.376 545.312 35.024C544.992 34.6667 544.738 34.2293 544.552 33.712C544.37 33.1947 544.28 32.6053 544.28 31.944C544.28 31.3413 544.362 30.784 544.528 30.272C544.698 29.76 544.944 29.32 545.264 28.952C545.589 28.5787 545.989 28.288 546.464 28.08C546.938 27.872 547.482 27.768 548.095 27.768C548.661 27.768 549.162 27.8613 549.6 28.048C550.037 28.2293 550.424 28.488 550.76 28.824L550.384 29.336ZM555.604 27.768C556.196 27.768 556.73 27.8667 557.204 28.064C557.684 28.2613 558.09 28.5413 558.42 28.904C558.756 29.2667 559.012 29.7067 559.188 30.224C559.37 30.736 559.46 31.3093 559.46 31.944C559.46 32.584 559.37 33.16 559.188 33.672C559.012 34.184 558.756 34.6213 558.42 34.984C558.09 35.3467 557.684 35.6267 557.204 35.824C556.73 36.016 556.196 36.112 555.604 36.112C555.012 36.112 554.476 36.016 553.996 35.824C553.522 35.6267 553.116 35.3467 552.78 34.984C552.444 34.6213 552.186 34.184 552.004 33.672C551.823 33.16 551.732 32.584 551.732 31.944C551.732 31.3093 551.823 30.736 552.004 30.224C552.186 29.7067 552.444 29.2667 552.78 28.904C553.116 28.5413 553.522 28.2613 553.996 28.064C554.476 27.8667 555.012 27.768 555.604 27.768ZM555.604 35C556.404 35 557.002 34.7333 557.396 34.2C557.791 33.6613 557.988 32.912 557.988 31.952C557.988 30.9867 557.791 30.2347 557.396 29.696C557.002 29.1573 556.404 28.888 555.604 28.888C555.199 28.888 554.847 28.9573 554.548 29.096C554.25 29.2347 553.999 29.4347 553.796 29.696C553.599 29.9573 553.45 30.28 553.348 30.664C553.252 31.0427 553.204 31.472 553.204 31.952C553.204 32.432 553.252 32.8613 553.348 33.24C553.45 33.6187 553.599 33.9387 553.796 34.2C553.999 34.456 554.25 34.6533 554.548 34.792C554.847 34.9307 555.199 35 555.604 35ZM562.447 27.896V33.064C562.447 33.6773 562.588 34.152 562.871 34.488C563.154 34.824 563.58 34.992 564.151 34.992C564.567 34.992 564.959 34.8933 565.327 34.696C565.695 34.4987 566.034 34.224 566.343 33.872V27.896H567.767V36H566.919C566.716 36 566.588 35.9013 566.535 35.704L566.423 34.832C566.071 35.2213 565.676 35.536 565.239 35.776C564.802 36.0107 564.3 36.128 563.735 36.128C563.292 36.128 562.9 36.056 562.559 35.912C562.223 35.7627 561.94 35.5547 561.711 35.288C561.482 35.0213 561.308 34.6987 561.191 34.32C561.079 33.9413 561.023 33.5227 561.023 33.064V27.896H562.447ZM570.106 36V27.896H570.922C571.076 27.896 571.183 27.9253 571.242 27.984C571.3 28.0427 571.34 28.144 571.362 28.288L571.458 29.552C571.735 28.9867 572.076 28.5467 572.482 28.232C572.892 27.912 573.372 27.752 573.922 27.752C574.146 27.752 574.348 27.7787 574.53 27.832C574.711 27.88 574.879 27.9493 575.034 28.04L574.85 29.104C574.812 29.2373 574.73 29.304 574.602 29.304C574.527 29.304 574.412 29.28 574.258 29.232C574.103 29.1787 573.887 29.152 573.61 29.152C573.114 29.152 572.698 29.296 572.362 29.584C572.031 29.872 571.754 30.2907 571.53 30.84V36H570.106ZM581.199 29.232C581.135 29.3493 581.036 29.408 580.903 29.408C580.823 29.408 580.732 29.3787 580.631 29.32C580.529 29.2613 580.404 29.1973 580.255 29.128C580.111 29.0533 579.937 28.9867 579.735 28.928C579.532 28.864 579.292 28.832 579.015 28.832C578.775 28.832 578.559 28.864 578.367 28.928C578.175 28.9867 578.009 29.0693 577.871 29.176C577.737 29.2827 577.633 29.408 577.559 29.552C577.489 29.6907 577.455 29.8427 577.455 30.008C577.455 30.216 577.513 30.3893 577.631 30.528C577.753 30.6667 577.913 30.7867 578.111 30.888C578.308 30.9893 578.532 31.08 578.783 31.16C579.033 31.2347 579.289 31.3173 579.551 31.408C579.817 31.4933 580.076 31.5893 580.327 31.696C580.577 31.8027 580.801 31.936 580.999 32.096C581.196 32.256 581.353 32.4533 581.471 32.688C581.593 32.9173 581.655 33.1947 581.655 33.52C581.655 33.8933 581.588 34.24 581.455 34.56C581.321 34.8747 581.124 35.1493 580.863 35.384C580.601 35.6133 580.281 35.7947 579.903 35.928C579.524 36.0613 579.087 36.128 578.591 36.128C578.025 36.128 577.513 36.0373 577.055 35.856C576.596 35.6693 576.207 35.432 575.887 35.144L576.223 34.6C576.265 34.5307 576.316 34.4773 576.375 34.44C576.433 34.4027 576.511 34.384 576.607 34.384C576.703 34.384 576.804 34.4213 576.911 34.496C577.017 34.5707 577.145 34.6533 577.295 34.744C577.449 34.8347 577.633 34.9173 577.847 34.992C578.065 35.0667 578.337 35.104 578.663 35.104C578.94 35.104 579.183 35.0693 579.391 35C579.599 34.9253 579.772 34.8267 579.911 34.704C580.049 34.5813 580.151 34.44 580.215 34.28C580.284 34.12 580.319 33.9493 580.319 33.768C580.319 33.544 580.257 33.36 580.135 33.216C580.017 33.0667 579.86 32.9413 579.663 32.84C579.465 32.7333 579.239 32.6427 578.983 32.568C578.732 32.488 578.473 32.4053 578.207 32.32C577.945 32.2347 577.687 32.1387 577.431 32.032C577.18 31.92 576.956 31.7813 576.759 31.616C576.561 31.4507 576.401 31.248 576.279 31.008C576.161 30.7627 576.103 30.4667 576.103 30.12C576.103 29.8107 576.167 29.5147 576.295 29.232C576.423 28.944 576.609 28.6933 576.855 28.48C577.1 28.2613 577.401 28.088 577.759 27.96C578.116 27.832 578.524 27.768 578.983 27.768C579.516 27.768 579.993 27.8533 580.415 28.024C580.841 28.1893 581.209 28.4187 581.519 28.712L581.199 29.232ZM586.704 27.768C587.189 27.768 587.637 27.8507 588.048 28.016C588.459 28.176 588.813 28.4107 589.112 28.72C589.411 29.024 589.643 29.4027 589.808 29.856C589.979 30.304 590.064 30.816 590.064 31.392C590.064 31.616 590.04 31.7653 589.992 31.84C589.944 31.9147 589.853 31.952 589.72 31.952H584.328C584.339 32.464 584.408 32.9093 584.536 33.288C584.664 33.6667 584.84 33.984 585.064 34.24C585.288 34.4907 585.555 34.68 585.864 34.808C586.173 34.9307 586.52 34.992 586.904 34.992C587.261 34.992 587.568 34.952 587.824 34.872C588.085 34.7867 588.309 34.696 588.496 34.6C588.683 34.504 588.837 34.416 588.96 34.336C589.088 34.2507 589.197 34.208 589.288 34.208C589.405 34.208 589.496 34.2533 589.56 34.344L589.96 34.864C589.784 35.0773 589.573 35.264 589.328 35.424C589.083 35.5787 588.819 35.7067 588.536 35.808C588.259 35.9093 587.971 35.984 587.672 36.032C587.373 36.0853 587.077 36.112 586.784 36.112C586.224 36.112 585.707 36.0187 585.232 35.832C584.763 35.64 584.355 35.3627 584.008 35C583.667 34.632 583.4 34.1787 583.208 33.64C583.016 33.1013 582.92 32.4827 582.92 31.784C582.92 31.2187 583.005 30.6907 583.176 30.2C583.352 29.7093 583.603 29.2853 583.928 28.928C584.253 28.5653 584.651 28.2827 585.12 28.08C585.589 27.872 586.117 27.768 586.704 27.768ZM586.736 28.816C586.048 28.816 585.507 29.016 585.112 29.416C584.717 29.8107 584.472 30.36 584.376 31.064H588.784C588.784 30.7333 588.739 30.432 588.648 30.16C588.557 29.8827 588.424 29.6453 588.248 29.448C588.072 29.2453 587.856 29.0907 587.6 28.984C587.349 28.872 587.061 28.816 586.736 28.816ZM596.527 29.232C596.463 29.3493 596.364 29.408 596.231 29.408C596.151 29.408 596.06 29.3787 595.959 29.32C595.857 29.2613 595.732 29.1973 595.583 29.128C595.439 29.0533 595.265 28.9867 595.063 28.928C594.86 28.864 594.62 28.832 594.343 28.832C594.103 28.832 593.887 28.864 593.695 28.928C593.503 28.9867 593.337 29.0693 593.199 29.176C593.065 29.2827 592.961 29.408 592.887 29.552C592.817 29.6907 592.783 29.8427 592.783 30.008C592.783 30.216 592.841 30.3893 592.959 30.528C593.081 30.6667 593.241 30.7867 593.439 30.888C593.636 30.9893 593.86 31.08 594.111 31.16C594.361 31.2347 594.617 31.3173 594.879 31.408C595.145 31.4933 595.404 31.5893 595.655 31.696C595.905 31.8027 596.129 31.936 596.327 32.096C596.524 32.256 596.681 32.4533 596.799 32.688C596.921 32.9173 596.983 33.1947 596.983 33.52C596.983 33.8933 596.916 34.24 596.783 34.56C596.649 34.8747 596.452 35.1493 596.191 35.384C595.929 35.6133 595.609 35.7947 595.231 35.928C594.852 36.0613 594.415 36.128 593.919 36.128C593.353 36.128 592.841 36.0373 592.383 35.856C591.924 35.6693 591.535 35.432 591.215 35.144L591.551 34.6C591.593 34.5307 591.644 34.4773 591.703 34.44C591.761 34.4027 591.839 34.384 591.935 34.384C592.031 34.384 592.132 34.4213 592.239 34.496C592.345 34.5707 592.473 34.6533 592.623 34.744C592.777 34.8347 592.961 34.9173 593.175 34.992C593.393 35.0667 593.665 35.104 593.991 35.104C594.268 35.104 594.511 35.0693 594.719 35C594.927 34.9253 595.1 34.8267 595.239 34.704C595.377 34.5813 595.479 34.44 595.543 34.28C595.612 34.12 595.647 33.9493 595.647 33.768C595.647 33.544 595.585 33.36 595.463 33.216C595.345 33.0667 595.188 32.9413 594.991 32.84C594.793 32.7333 594.567 32.6427 594.311 32.568C594.06 32.488 593.801 32.4053 593.535 32.32C593.273 32.2347 593.015 32.1387 592.759 32.032C592.508 31.92 592.284 31.7813 592.087 31.616C591.889 31.4507 591.729 31.248 591.607 31.008C591.489 30.7627 591.431 30.4667 591.431 30.12C591.431 29.8107 591.495 29.5147 591.623 29.232C591.751 28.944 591.937 28.6933 592.183 28.48C592.428 28.2613 592.729 28.088 593.087 27.96C593.444 27.832 593.852 27.768 594.311 27.768C594.844 27.768 595.321 27.8533 595.743 28.024C596.169 28.1893 596.537 28.4187 596.847 28.712L596.527 29.232Z" fill="#1E212C"/>
<circle cx="668" cy="30" r="4" fill="#FF3F3A"/>
<path d="M744.112 42.848H750.552V25.943C750.552 25.115 750.575 24.2487 750.621 23.344L746.826 26.495C746.581 26.6943 746.336 26.84 746.09 26.932C745.845 27.0087 745.607 27.047 745.377 27.047C744.979 27.047 744.618 26.9627 744.296 26.794C743.99 26.61 743.76 26.4183 743.606 26.219L741.352 23.229L751.794 14.466H757.682V42.848H763.202V48H744.112V42.848ZM780.824 26.771C782.035 26.771 783.231 26.9703 784.412 27.369C785.593 27.7677 786.651 28.381 787.586 29.209C788.521 30.037 789.273 31.0873 789.84 32.36C790.423 33.6173 790.714 35.1047 790.714 36.822C790.714 38.386 790.423 39.8733 789.84 41.284C789.257 42.6793 788.429 43.906 787.356 44.964C786.298 46.0067 785.018 46.8347 783.515 47.448C782.012 48.0613 780.349 48.368 778.524 48.368C776.653 48.368 774.974 48.0767 773.487 47.494C772 46.896 770.735 46.068 769.692 45.01C768.665 43.952 767.875 42.687 767.323 41.215C766.786 39.743 766.518 38.1253 766.518 36.362C766.518 34.6907 766.84 33.027 767.484 31.371C768.128 29.715 769.079 28.0283 770.336 26.311L777.88 16.122C778.217 15.662 778.723 15.2787 779.398 14.972C780.073 14.65 780.839 14.489 781.698 14.489H788.046L778.11 26.357C777.957 26.5257 777.803 26.702 777.65 26.886C777.512 27.0547 777.374 27.2233 777.236 27.392C777.773 27.1927 778.332 27.0393 778.915 26.932C779.513 26.8247 780.149 26.771 780.824 26.771ZM773.372 37.328C773.372 38.156 773.472 38.8997 773.671 39.559C773.87 40.2183 774.177 40.7857 774.591 41.261C775.005 41.7363 775.526 42.1043 776.155 42.365C776.784 42.6103 777.527 42.733 778.386 42.733C779.122 42.733 779.804 42.595 780.433 42.319C781.077 42.043 781.629 41.6673 782.089 41.192C782.549 40.7013 782.909 40.134 783.17 39.49C783.446 38.8307 783.584 38.1177 783.584 37.351C783.584 36.4923 783.454 35.7257 783.193 35.051C782.948 34.3763 782.595 33.809 782.135 33.349C781.675 32.889 781.115 32.5363 780.456 32.291C779.812 32.0457 779.091 31.923 778.294 31.923C777.573 31.923 776.914 32.0533 776.316 32.314C775.718 32.5593 775.197 32.9197 774.752 33.395C774.323 33.8703 773.985 34.4377 773.74 35.097C773.495 35.7563 773.372 36.5 773.372 37.328Z" fill="#1E212C"/>
<path d="M816.04 30.272C816.04 30.8107 815.984 31.3227 815.872 31.808C815.765 32.2933 815.608 32.7467 815.4 33.168C815.192 33.584 814.939 33.9627 814.64 34.304C814.341 34.6453 814.005 34.9413 813.632 35.192L816.576 38.368H815.296C815.104 38.368 814.933 38.3413 814.784 38.288C814.635 38.2347 814.499 38.1413 814.376 38.008L812.36 35.816C812.056 35.912 811.739 35.9867 811.408 36.04C811.083 36.0933 810.741 36.12 810.384 36.12C809.541 36.12 808.773 35.9787 808.08 35.696C807.387 35.408 806.792 35.0053 806.296 34.488C805.8 33.9707 805.416 33.3547 805.144 32.64C804.872 31.92 804.736 31.1307 804.736 30.272C804.736 29.4133 804.872 28.6267 805.144 27.912C805.416 27.192 805.8 26.5733 806.296 26.056C806.792 25.5333 807.387 25.128 808.08 24.84C808.773 24.552 809.541 24.408 810.384 24.408C811.227 24.408 811.995 24.552 812.688 24.84C813.387 25.128 813.984 25.5333 814.48 26.056C814.976 26.5733 815.36 27.192 815.632 27.912C815.904 28.6267 816.04 29.4133 816.04 30.272ZM814.448 30.272C814.448 29.568 814.352 28.936 814.16 28.376C813.968 27.816 813.696 27.344 813.344 26.96C812.992 26.5707 812.565 26.272 812.064 26.064C811.563 25.856 811.003 25.752 810.384 25.752C809.771 25.752 809.213 25.856 808.712 26.064C808.211 26.272 807.781 26.5707 807.424 26.96C807.072 27.344 806.8 27.816 806.608 28.376C806.416 28.936 806.32 29.568 806.32 30.272C806.32 30.976 806.416 31.608 806.608 32.168C806.8 32.7227 807.072 33.1947 807.424 33.584C807.781 33.968 808.211 34.264 808.712 34.472C809.213 34.6747 809.771 34.776 810.384 34.776C811.003 34.776 811.563 34.6747 812.064 34.472C812.565 34.264 812.992 33.968 813.344 33.584C813.696 33.1947 813.968 32.7227 814.16 32.168C814.352 31.608 814.448 30.976 814.448 30.272ZM819.166 27.896V33.064C819.166 33.6773 819.307 34.152 819.59 34.488C819.872 34.824 820.299 34.992 820.87 34.992C821.286 34.992 821.678 34.8933 822.046 34.696C822.414 34.4987 822.752 34.224 823.062 33.872V27.896H824.486V36H823.638C823.435 36 823.307 35.9013 823.254 35.704L823.142 34.832C822.79 35.2213 822.395 35.536 821.958 35.776C821.52 36.0107 821.019 36.128 820.454 36.128C820.011 36.128 819.619 36.056 819.278 35.912C818.942 35.7627 818.659 35.5547 818.43 35.288C818.2 35.0213 818.027 34.6987 817.91 34.32C817.798 33.9413 817.742 33.5227 817.742 33.064V27.896H819.166ZM832.776 36H832.144C832.006 36 831.894 35.9787 831.808 35.936C831.723 35.8933 831.667 35.8027 831.64 35.664L831.48 34.912C831.267 35.104 831.059 35.2773 830.856 35.432C830.654 35.5813 830.44 35.7093 830.216 35.816C829.992 35.9173 829.752 35.9947 829.496 36.048C829.246 36.1013 828.966 36.128 828.656 36.128C828.342 36.128 828.046 36.0853 827.768 36C827.496 35.9093 827.259 35.776 827.056 35.6C826.854 35.424 826.691 35.2027 826.568 34.936C826.451 34.664 826.392 34.344 826.392 33.976C826.392 33.656 826.48 33.3493 826.656 33.056C826.832 32.7573 827.115 32.4933 827.504 32.264C827.899 32.0347 828.414 31.848 829.048 31.704C829.683 31.5547 830.459 31.4693 831.376 31.448V30.816C831.376 30.1867 831.24 29.712 830.968 29.392C830.702 29.0667 830.304 28.904 829.776 28.904C829.43 28.904 829.136 28.9493 828.896 29.04C828.662 29.1253 828.456 29.224 828.28 29.336C828.11 29.4427 827.96 29.5413 827.832 29.632C827.71 29.7173 827.587 29.76 827.464 29.76C827.368 29.76 827.283 29.736 827.208 29.688C827.139 29.6347 827.083 29.5707 827.04 29.496L826.784 29.04C827.232 28.608 827.715 28.2853 828.232 28.072C828.75 27.8587 829.323 27.752 829.952 27.752C830.406 27.752 830.808 27.8267 831.16 27.976C831.512 28.1253 831.808 28.3333 832.048 28.6C832.288 28.8667 832.47 29.1893 832.592 29.568C832.715 29.9467 832.776 30.3627 832.776 30.816V36ZM829.08 35.128C829.331 35.128 829.56 35.104 829.768 35.056C829.976 35.0027 830.171 34.9307 830.352 34.84C830.539 34.744 830.715 34.6293 830.88 34.496C831.051 34.3627 831.216 34.2107 831.376 34.04V32.352C830.72 32.3733 830.163 32.4267 829.704 32.512C829.246 32.592 828.872 32.6987 828.584 32.832C828.296 32.9653 828.086 33.1227 827.952 33.304C827.824 33.4853 827.76 33.688 827.76 33.912C827.76 34.1253 827.795 34.3093 827.864 34.464C827.934 34.6187 828.027 34.7467 828.144 34.848C828.262 34.944 828.4 35.016 828.56 35.064C828.72 35.1067 828.894 35.128 829.08 35.128ZM836.518 24.216V36H835.094V24.216H836.518ZM840.611 27.896V36H839.187V27.896H840.611ZM840.931 25.352C840.931 25.4907 840.902 25.6213 840.843 25.744C840.79 25.8613 840.715 25.968 840.619 26.064C840.529 26.1547 840.422 26.2267 840.299 26.28C840.177 26.3333 840.046 26.36 839.907 26.36C839.769 26.36 839.638 26.3333 839.515 26.28C839.398 26.2267 839.291 26.1547 839.195 26.064C839.105 25.968 839.033 25.8613 838.979 25.744C838.926 25.6213 838.899 25.4907 838.899 25.352C838.899 25.2133 838.926 25.0827 838.979 24.96C839.033 24.832 839.105 24.7227 839.195 24.632C839.291 24.536 839.398 24.4613 839.515 24.408C839.638 24.3547 839.769 24.328 839.907 24.328C840.046 24.328 840.177 24.3547 840.299 24.408C840.422 24.4613 840.529 24.536 840.619 24.632C840.715 24.7227 840.79 24.832 840.843 24.96C840.902 25.0827 840.931 25.2133 840.931 25.352ZM843.441 36V29.112L842.545 29.008C842.433 28.9813 842.34 28.9413 842.265 28.888C842.196 28.8293 842.161 28.7467 842.161 28.64V28.056H843.441V27.608C843.441 27.112 843.518 26.6587 843.673 26.248C843.828 25.832 844.06 25.4747 844.369 25.176C844.678 24.8773 845.062 24.6453 845.521 24.48C845.985 24.3147 846.524 24.232 847.137 24.232C847.34 24.232 847.545 24.2453 847.753 24.272C847.966 24.2987 848.15 24.3387 848.305 24.392L848.257 25.136C848.246 25.2053 848.214 25.2507 848.161 25.272C848.108 25.288 848.03 25.296 847.929 25.296C847.87 25.296 847.809 25.296 847.745 25.296C847.681 25.2907 847.609 25.288 847.529 25.288C846.585 25.288 845.897 25.4853 845.465 25.88C845.038 26.2693 844.825 26.8587 844.825 27.648V28.056H849.721V36H848.297V29.088H844.873V36H843.441ZM855.454 27.768C855.939 27.768 856.387 27.8507 856.798 28.016C857.209 28.176 857.563 28.4107 857.862 28.72C858.161 29.024 858.393 29.4027 858.558 29.856C858.729 30.304 858.814 30.816 858.814 31.392C858.814 31.616 858.79 31.7653 858.742 31.84C858.694 31.9147 858.603 31.952 858.47 31.952H853.078C853.089 32.464 853.158 32.9093 853.286 33.288C853.414 33.6667 853.59 33.984 853.814 34.24C854.038 34.4907 854.305 34.68 854.614 34.808C854.923 34.9307 855.27 34.992 855.654 34.992C856.011 34.992 856.318 34.952 856.574 34.872C856.835 34.7867 857.059 34.696 857.246 34.6C857.433 34.504 857.587 34.416 857.71 34.336C857.838 34.2507 857.947 34.208 858.038 34.208C858.155 34.208 858.246 34.2533 858.31 34.344L858.71 34.864C858.534 35.0773 858.323 35.264 858.078 35.424C857.833 35.5787 857.569 35.7067 857.286 35.808C857.009 35.9093 856.721 35.984 856.422 36.032C856.123 36.0853 855.827 36.112 855.534 36.112C854.974 36.112 854.457 36.0187 853.982 35.832C853.513 35.64 853.105 35.3627 852.758 35C852.417 34.632 852.15 34.1787 851.958 33.64C851.766 33.1013 851.67 32.4827 851.67 31.784C851.67 31.2187 851.755 30.6907 851.926 30.2C852.102 29.7093 852.353 29.2853 852.678 28.928C853.003 28.5653 853.401 28.2827 853.87 28.08C854.339 27.872 854.867 27.768 855.454 27.768ZM855.486 28.816C854.798 28.816 854.257 29.016 853.862 29.416C853.467 29.8107 853.222 30.36 853.126 31.064H857.534C857.534 30.7333 857.489 30.432 857.398 30.16C857.307 29.8827 857.174 29.6453 856.998 29.448C856.822 29.2453 856.606 29.0907 856.35 28.984C856.099 28.872 855.811 28.816 855.486 28.816ZM866.341 36C866.138 36 866.01 35.9013 865.957 35.704L865.829 34.72C865.482 35.1413 865.085 35.48 864.637 35.736C864.194 35.9867 863.685 36.112 863.109 36.112C862.645 36.112 862.223 36.024 861.845 35.848C861.466 35.6667 861.143 35.4027 860.877 35.056C860.61 34.7093 860.405 34.2773 860.261 33.76C860.117 33.2427 860.045 32.648 860.045 31.976C860.045 31.3787 860.125 30.824 860.285 30.312C860.445 29.7947 860.674 29.3467 860.973 28.968C861.277 28.5893 861.645 28.2933 862.077 28.08C862.509 27.8613 862.999 27.752 863.549 27.752C864.045 27.752 864.469 27.8373 864.821 28.008C865.173 28.1733 865.487 28.408 865.765 28.712V24.216H867.189V36H866.341ZM863.581 34.96C864.045 34.96 864.45 34.8533 864.797 34.64C865.149 34.4267 865.471 34.1253 865.765 33.736V29.816C865.503 29.464 865.215 29.2187 864.901 29.08C864.591 28.936 864.247 28.864 863.869 28.864C863.111 28.864 862.53 29.1333 862.125 29.672C861.719 30.2107 861.517 30.9787 861.517 31.976C861.517 32.504 861.562 32.9573 861.653 33.336C861.743 33.7093 861.877 34.0187 862.053 34.264C862.229 34.504 862.445 34.68 862.701 34.792C862.957 34.904 863.25 34.96 863.581 34.96ZM875.124 36.128C874.484 36.128 873.991 35.9493 873.644 35.592C873.303 35.2347 873.132 34.72 873.132 34.048V29.088H872.156C872.071 29.088 871.999 29.064 871.94 29.016C871.881 28.9627 871.852 28.8827 871.852 28.776V28.208L873.18 28.04L873.508 25.536C873.519 25.456 873.553 25.392 873.612 25.344C873.671 25.2907 873.745 25.264 873.836 25.264H874.556V28.056H876.876V29.088H874.556V33.952C874.556 34.2933 874.639 34.5467 874.804 34.712C874.969 34.8773 875.183 34.96 875.444 34.96C875.593 34.96 875.721 34.9413 875.828 34.904C875.94 34.8613 876.036 34.816 876.116 34.768C876.196 34.72 876.263 34.6773 876.316 34.64C876.375 34.5973 876.425 34.576 876.468 34.576C876.543 34.576 876.609 34.6213 876.668 34.712L877.084 35.392C876.839 35.6213 876.543 35.8027 876.196 35.936C875.849 36.064 875.492 36.128 875.124 36.128ZM879.869 27.896V33.064C879.869 33.6773 880.01 34.152 880.293 34.488C880.575 34.824 881.002 34.992 881.573 34.992C881.989 34.992 882.381 34.8933 882.749 34.696C883.117 34.4987 883.455 34.224 883.765 33.872V27.896H885.189V36H884.341C884.138 36 884.01 35.9013 883.957 35.704L883.845 34.832C883.493 35.2213 883.098 35.536 882.661 35.776C882.223 36.0107 881.722 36.128 881.157 36.128C880.714 36.128 880.322 36.056 879.981 35.912C879.645 35.7627 879.362 35.5547 879.133 35.288C878.903 35.0213 878.73 34.6987 878.613 34.32C878.501 33.9413 878.445 33.5227 878.445 33.064V27.896H879.869ZM889.983 36.128C889.343 36.128 888.85 35.9493 888.503 35.592C888.162 35.2347 887.991 34.72 887.991 34.048V29.088H887.015C886.93 29.088 886.858 29.064 886.799 29.016C886.741 28.9627 886.711 28.8827 886.711 28.776V28.208L888.039 28.04L888.367 25.536C888.378 25.456 888.413 25.392 888.471 25.344C888.53 25.2907 888.605 25.264 888.695 25.264H889.415V28.056H891.735V29.088H889.415V33.952C889.415 34.2933 889.498 34.5467 889.663 34.712C889.829 34.8773 890.042 34.96 890.303 34.96C890.453 34.96 890.581 34.9413 890.687 34.904C890.799 34.8613 890.895 34.816 890.975 34.768C891.055 34.72 891.122 34.6773 891.175 34.64C891.234 34.5973 891.285 34.576 891.327 34.576C891.402 34.576 891.469 34.6213 891.527 34.712L891.943 35.392C891.698 35.6213 891.402 35.8027 891.055 35.936C890.709 36.064 890.351 36.128 889.983 36.128ZM896.776 27.768C897.368 27.768 897.901 27.8667 898.376 28.064C898.856 28.2613 899.261 28.5413 899.592 28.904C899.928 29.2667 900.184 29.7067 900.36 30.224C900.541 30.736 900.632 31.3093 900.632 31.944C900.632 32.584 900.541 33.16 900.36 33.672C900.184 34.184 899.928 34.6213 899.592 34.984C899.261 35.3467 898.856 35.6267 898.376 35.824C897.901 36.016 897.368 36.112 896.776 36.112C896.184 36.112 895.648 36.016 895.168 35.824C894.693 35.6267 894.288 35.3467 893.952 34.984C893.616 34.6213 893.357 34.184 893.176 33.672C892.995 33.16 892.904 32.584 892.904 31.944C892.904 31.3093 892.995 30.736 893.176 30.224C893.357 29.7067 893.616 29.2667 893.952 28.904C894.288 28.5413 894.693 28.2613 895.168 28.064C895.648 27.8667 896.184 27.768 896.776 27.768ZM896.776 35C897.576 35 898.173 34.7333 898.568 34.2C898.963 33.6613 899.16 32.912 899.16 31.952C899.16 30.9867 898.963 30.2347 898.568 29.696C898.173 29.1573 897.576 28.888 896.776 28.888C896.371 28.888 896.019 28.9573 895.72 29.096C895.421 29.2347 895.171 29.4347 894.968 29.696C894.771 29.9573 894.621 30.28 894.52 30.664C894.424 31.0427 894.376 31.472 894.376 31.952C894.376 32.432 894.424 32.8613 894.52 33.24C894.621 33.6187 894.771 33.9387 894.968 34.2C895.171 34.456 895.421 34.6533 895.72 34.792C896.019 34.9307 896.371 35 896.776 35ZM902.387 36V27.896H903.203C903.357 27.896 903.464 27.9253 903.523 27.984C903.581 28.0427 903.621 28.144 903.643 28.288L903.739 29.552C904.016 28.9867 904.357 28.5467 904.763 28.232C905.173 27.912 905.653 27.752 906.203 27.752C906.427 27.752 906.629 27.7787 906.811 27.832C906.992 27.88 907.16 27.9493 907.315 28.04L907.131 29.104C907.093 29.2373 907.011 29.304 906.883 29.304C906.808 29.304 906.693 29.28 906.539 29.232C906.384 29.1787 906.168 29.152 905.891 29.152C905.395 29.152 904.979 29.296 904.643 29.584C904.312 29.872 904.035 30.2907 903.811 30.84V36H902.387ZM913.48 29.232C913.416 29.3493 913.317 29.408 913.184 29.408C913.104 29.408 913.013 29.3787 912.912 29.32C912.811 29.2613 912.685 29.1973 912.536 29.128C912.392 29.0533 912.219 28.9867 912.016 28.928C911.813 28.864 911.573 28.832 911.296 28.832C911.056 28.832 910.84 28.864 910.648 28.928C910.456 28.9867 910.291 29.0693 910.152 29.176C910.019 29.2827 909.915 29.408 909.84 29.552C909.771 29.6907 909.736 29.8427 909.736 30.008C909.736 30.216 909.795 30.3893 909.912 30.528C910.035 30.6667 910.195 30.7867 910.392 30.888C910.589 30.9893 910.813 31.08 911.064 31.16C911.315 31.2347 911.571 31.3173 911.832 31.408C912.099 31.4933 912.357 31.5893 912.608 31.696C912.859 31.8027 913.083 31.936 913.28 32.096C913.477 32.256 913.635 32.4533 913.752 32.688C913.875 32.9173 913.936 33.1947 913.936 33.52C913.936 33.8933 913.869 34.24 913.736 34.56C913.603 34.8747 913.405 35.1493 913.144 35.384C912.883 35.6133 912.563 35.7947 912.184 35.928C911.805 36.0613 911.368 36.128 910.872 36.128C910.307 36.128 909.795 36.0373 909.336 35.856C908.877 35.6693 908.488 35.432 908.168 35.144L908.504 34.6C908.547 34.5307 908.597 34.4773 908.656 34.44C908.715 34.4027 908.792 34.384 908.888 34.384C908.984 34.384 909.085 34.4213 909.192 34.496C909.299 34.5707 909.427 34.6533 909.576 34.744C909.731 34.8347 909.915 34.9173 910.128 34.992C910.347 35.0667 910.619 35.104 910.944 35.104C911.221 35.104 911.464 35.0693 911.672 35C911.88 34.9253 912.053 34.8267 912.192 34.704C912.331 34.5813 912.432 34.44 912.496 34.28C912.565 34.12 912.6 33.9493 912.6 33.768C912.6 33.544 912.539 33.36 912.416 33.216C912.299 33.0667 912.141 32.9413 911.944 32.84C911.747 32.7333 911.52 32.6427 911.264 32.568C911.013 32.488 910.755 32.4053 910.488 32.32C910.227 32.2347 909.968 32.1387 909.712 32.032C909.461 31.92 909.237 31.7813 909.04 31.616C908.843 31.4507 908.683 31.248 908.56 31.008C908.443 30.7627 908.384 30.4667 908.384 30.12C908.384 29.8107 908.448 29.5147 908.576 29.232C908.704 28.944 908.891 28.6933 909.136 28.48C909.381 28.2613 909.683 28.088 910.04 27.96C910.397 27.832 910.805 27.768 911.264 27.768C911.797 27.768 912.275 27.8533 912.696 28.024C913.123 28.1893 913.491 28.4187 913.8 28.712L913.48 29.232Z" fill="#1E212C"/>
<circle cx="985" cy="30" r="4" fill="#FF3F3A"/>
<path d="M1078.11 17.433C1078.11 17.9237 1078.04 18.3683 1077.88 18.767C1077.73 19.1657 1077.48 19.5183 1077.15 19.825C1076.82 20.1163 1076.39 20.3463 1075.86 20.515C1075.32 20.6683 1074.68 20.745 1073.93 20.745H1065.92L1064.98 26.288C1065.61 26.1807 1066.21 26.104 1066.8 26.058C1067.38 25.9967 1067.95 25.966 1068.5 25.966C1070.26 25.966 1071.82 26.2343 1073.17 26.771C1074.52 27.3077 1075.65 28.0437 1076.57 28.979C1077.49 29.899 1078.18 30.9877 1078.64 32.245C1079.12 33.487 1079.35 34.821 1079.35 36.247C1079.35 38.041 1079.03 39.6817 1078.39 41.169C1077.76 42.641 1076.88 43.9137 1075.74 44.987C1074.61 46.0603 1073.25 46.896 1071.67 47.494C1070.11 48.0767 1068.39 48.368 1066.52 48.368C1065.43 48.368 1064.39 48.253 1063.39 48.023C1062.41 47.793 1061.48 47.4863 1060.61 47.103C1059.75 46.7043 1058.95 46.252 1058.22 45.746C1057.48 45.2247 1056.81 44.6727 1056.22 44.09L1058.42 41.146C1058.65 40.8393 1058.92 40.6093 1059.23 40.456C1059.54 40.2873 1059.87 40.203 1060.22 40.203C1060.68 40.203 1061.11 40.3333 1061.51 40.594C1061.92 40.8393 1062.36 41.1153 1062.84 41.422C1063.33 41.7133 1063.9 41.9817 1064.54 42.227C1065.19 42.4723 1065.98 42.595 1066.93 42.595C1067.88 42.595 1068.7 42.4417 1069.37 42.135C1070.05 41.813 1070.59 41.3837 1071.01 40.847C1071.43 40.295 1071.74 39.6587 1071.93 38.938C1072.12 38.202 1072.22 37.42 1072.22 36.592C1072.22 34.9667 1071.76 33.7323 1070.84 32.889C1069.92 32.0303 1068.62 31.601 1066.93 31.601C1065.43 31.601 1063.96 31.8847 1062.52 32.452L1058.1 31.256L1060.95 14.489H1078.11V17.433Z" fill="#1E212C"/>
<path d="M1099.81 31.44V36H1098.26V31.44L1094.06 24.536H1095.42C1095.56 24.536 1095.67 24.5707 1095.75 24.64C1095.83 24.7093 1095.9 24.7947 1095.96 24.896L1098.58 29.352C1098.69 29.5387 1098.78 29.7147 1098.85 29.88C1098.92 30.0453 1098.99 30.208 1099.05 30.368C1099.11 30.2027 1099.17 30.0373 1099.24 29.872C1099.31 29.7067 1099.4 29.5333 1099.5 29.352L1102.12 24.896C1102.17 24.8107 1102.23 24.7307 1102.31 24.656C1102.4 24.576 1102.51 24.536 1102.64 24.536H1104.02L1099.81 31.44ZM1107.16 27.768C1107.64 27.768 1108.09 27.8507 1108.5 28.016C1108.91 28.176 1109.27 28.4107 1109.57 28.72C1109.86 29.024 1110.1 29.4027 1110.26 29.856C1110.43 30.304 1110.52 30.816 1110.52 31.392C1110.52 31.616 1110.49 31.7653 1110.45 31.84C1110.4 31.9147 1110.31 31.952 1110.17 31.952H1104.78C1104.79 32.464 1104.86 32.9093 1104.99 33.288C1105.12 33.6667 1105.29 33.984 1105.52 34.24C1105.74 34.4907 1106.01 34.68 1106.32 34.808C1106.63 34.9307 1106.97 34.992 1107.36 34.992C1107.71 34.992 1108.02 34.952 1108.28 34.872C1108.54 34.7867 1108.76 34.696 1108.95 34.6C1109.14 34.504 1109.29 34.416 1109.41 34.336C1109.54 34.2507 1109.65 34.208 1109.74 34.208C1109.86 34.208 1109.95 34.2533 1110.01 34.344L1110.41 34.864C1110.24 35.0773 1110.03 35.264 1109.78 35.424C1109.54 35.5787 1109.27 35.7067 1108.99 35.808C1108.71 35.9093 1108.42 35.984 1108.13 36.032C1107.83 36.0853 1107.53 36.112 1107.24 36.112C1106.68 36.112 1106.16 36.0187 1105.69 35.832C1105.22 35.64 1104.81 35.3627 1104.46 35C1104.12 34.632 1103.85 34.1787 1103.66 33.64C1103.47 33.1013 1103.37 32.4827 1103.37 31.784C1103.37 31.2187 1103.46 30.6907 1103.63 30.2C1103.81 29.7093 1104.06 29.2853 1104.38 28.928C1104.71 28.5653 1105.1 28.2827 1105.57 28.08C1106.04 27.872 1106.57 27.768 1107.16 27.768ZM1107.19 28.816C1106.5 28.816 1105.96 29.016 1105.57 29.416C1105.17 29.8107 1104.93 30.36 1104.83 31.064H1109.24C1109.24 30.7333 1109.19 30.432 1109.1 30.16C1109.01 29.8827 1108.88 29.6453 1108.7 29.448C1108.53 29.2453 1108.31 29.0907 1108.05 28.984C1107.8 28.872 1107.51 28.816 1107.19 28.816ZM1118.29 36H1117.66C1117.52 36 1117.41 35.9787 1117.32 35.936C1117.24 35.8933 1117.18 35.8027 1117.16 35.664L1117 34.912C1116.78 35.104 1116.57 35.2773 1116.37 35.432C1116.17 35.5813 1115.96 35.7093 1115.73 35.816C1115.51 35.9173 1115.27 35.9947 1115.01 36.048C1114.76 36.1013 1114.48 36.128 1114.17 36.128C1113.86 36.128 1113.56 36.0853 1113.28 36C1113.01 35.9093 1112.77 35.776 1112.57 35.6C1112.37 35.424 1112.21 35.2027 1112.08 34.936C1111.97 34.664 1111.91 34.344 1111.91 33.976C1111.91 33.656 1112 33.3493 1112.17 33.056C1112.35 32.7573 1112.63 32.4933 1113.02 32.264C1113.41 32.0347 1113.93 31.848 1114.56 31.704C1115.2 31.5547 1115.97 31.4693 1116.89 31.448V30.816C1116.89 30.1867 1116.76 29.712 1116.48 29.392C1116.22 29.0667 1115.82 28.904 1115.29 28.904C1114.95 28.904 1114.65 28.9493 1114.41 29.04C1114.18 29.1253 1113.97 29.224 1113.8 29.336C1113.63 29.4427 1113.48 29.5413 1113.35 29.632C1113.23 29.7173 1113.1 29.76 1112.98 29.76C1112.88 29.76 1112.8 29.736 1112.72 29.688C1112.65 29.6347 1112.6 29.5707 1112.56 29.496L1112.3 29.04C1112.75 28.608 1113.23 28.2853 1113.75 28.072C1114.27 27.8587 1114.84 27.752 1115.47 27.752C1115.92 27.752 1116.32 27.8267 1116.68 27.976C1117.03 28.1253 1117.32 28.3333 1117.56 28.6C1117.8 28.8667 1117.99 29.1893 1118.11 29.568C1118.23 29.9467 1118.29 30.3627 1118.29 30.816V36ZM1114.6 35.128C1114.85 35.128 1115.08 35.104 1115.28 35.056C1115.49 35.0027 1115.69 34.9307 1115.87 34.84C1116.05 34.744 1116.23 34.6293 1116.4 34.496C1116.57 34.3627 1116.73 34.2107 1116.89 34.04V32.352C1116.24 32.3733 1115.68 32.4267 1115.22 32.512C1114.76 32.592 1114.39 32.6987 1114.1 32.832C1113.81 32.9653 1113.6 33.1227 1113.47 33.304C1113.34 33.4853 1113.28 33.688 1113.28 33.912C1113.28 34.1253 1113.31 34.3093 1113.38 34.464C1113.45 34.6187 1113.54 34.7467 1113.66 34.848C1113.78 34.944 1113.92 35.016 1114.08 35.064C1114.24 35.1067 1114.41 35.128 1114.6 35.128ZM1120.45 36V27.896H1121.27C1121.42 27.896 1121.53 27.9253 1121.59 27.984C1121.64 28.0427 1121.68 28.144 1121.71 28.288L1121.8 29.552C1122.08 28.9867 1122.42 28.5467 1122.83 28.232C1123.24 27.912 1123.72 27.752 1124.27 27.752C1124.49 27.752 1124.69 27.7787 1124.87 27.832C1125.05 27.88 1125.22 27.9493 1125.38 28.04L1125.19 29.104C1125.16 29.2373 1125.07 29.304 1124.95 29.304C1124.87 29.304 1124.76 29.28 1124.6 29.232C1124.45 29.1787 1124.23 29.152 1123.95 29.152C1123.46 29.152 1123.04 29.296 1122.71 29.584C1122.37 29.872 1122.1 30.2907 1121.87 30.84V36H1120.45ZM1131.54 29.232C1131.48 29.3493 1131.38 29.408 1131.25 29.408C1131.17 29.408 1131.08 29.3787 1130.97 29.32C1130.87 29.2613 1130.75 29.1973 1130.6 29.128C1130.45 29.0533 1130.28 28.9867 1130.08 28.928C1129.88 28.864 1129.64 28.832 1129.36 28.832C1129.12 28.832 1128.9 28.864 1128.71 28.928C1128.52 28.9867 1128.35 29.0693 1128.21 29.176C1128.08 29.2827 1127.98 29.408 1127.9 29.552C1127.83 29.6907 1127.8 29.8427 1127.8 30.008C1127.8 30.216 1127.86 30.3893 1127.97 30.528C1128.1 30.6667 1128.26 30.7867 1128.45 30.888C1128.65 30.9893 1128.88 31.08 1129.13 31.16C1129.38 31.2347 1129.63 31.3173 1129.89 31.408C1130.16 31.4933 1130.42 31.5893 1130.67 31.696C1130.92 31.8027 1131.15 31.936 1131.34 32.096C1131.54 32.256 1131.7 32.4533 1131.81 32.688C1131.94 32.9173 1132 33.1947 1132 33.52C1132 33.8933 1131.93 34.24 1131.8 34.56C1131.67 34.8747 1131.47 35.1493 1131.21 35.384C1130.95 35.6133 1130.63 35.7947 1130.25 35.928C1129.87 36.0613 1129.43 36.128 1128.93 36.128C1128.37 36.128 1127.86 36.0373 1127.4 35.856C1126.94 35.6693 1126.55 35.432 1126.23 35.144L1126.57 34.6C1126.61 34.5307 1126.66 34.4773 1126.72 34.44C1126.78 34.4027 1126.85 34.384 1126.95 34.384C1127.05 34.384 1127.15 34.4213 1127.25 34.496C1127.36 34.5707 1127.49 34.6533 1127.64 34.744C1127.79 34.8347 1127.98 34.9173 1128.19 34.992C1128.41 35.0667 1128.68 35.104 1129.01 35.104C1129.28 35.104 1129.53 35.0693 1129.73 35C1129.94 34.9253 1130.12 34.8267 1130.25 34.704C1130.39 34.5813 1130.49 34.44 1130.56 34.28C1130.63 34.12 1130.66 33.9493 1130.66 33.768C1130.66 33.544 1130.6 33.36 1130.48 33.216C1130.36 33.0667 1130.2 32.9413 1130.01 32.84C1129.81 32.7333 1129.58 32.6427 1129.33 32.568C1129.08 32.488 1128.82 32.4053 1128.55 32.32C1128.29 32.2347 1128.03 32.1387 1127.77 32.032C1127.52 31.92 1127.3 31.7813 1127.1 31.616C1126.91 31.4507 1126.75 31.248 1126.62 31.008C1126.51 30.7627 1126.45 30.4667 1126.45 30.12C1126.45 29.8107 1126.51 29.5147 1126.64 29.232C1126.77 28.944 1126.95 28.6933 1127.2 28.48C1127.44 28.2613 1127.75 28.088 1128.1 27.96C1128.46 27.832 1128.87 27.768 1129.33 27.768C1129.86 27.768 1130.34 27.8533 1130.76 28.024C1131.19 28.1893 1131.55 28.4187 1131.86 28.712L1131.54 29.232ZM1140.21 27.768C1140.81 27.768 1141.34 27.8667 1141.81 28.064C1142.29 28.2613 1142.7 28.5413 1143.03 28.904C1143.37 29.2667 1143.62 29.7067 1143.8 30.224C1143.98 30.736 1144.07 31.3093 1144.07 31.944C1144.07 32.584 1143.98 33.16 1143.8 33.672C1143.62 34.184 1143.37 34.6213 1143.03 34.984C1142.7 35.3467 1142.29 35.6267 1141.81 35.824C1141.34 36.016 1140.81 36.112 1140.21 36.112C1139.62 36.112 1139.09 36.016 1138.61 35.824C1138.13 35.6267 1137.73 35.3467 1137.39 34.984C1137.05 34.6213 1136.79 34.184 1136.61 33.672C1136.43 33.16 1136.34 32.584 1136.34 31.944C1136.34 31.3093 1136.43 30.736 1136.61 30.224C1136.79 29.7067 1137.05 29.2667 1137.39 28.904C1137.73 28.5413 1138.13 28.2613 1138.61 28.064C1139.09 27.8667 1139.62 27.768 1140.21 27.768ZM1140.21 35C1141.01 35 1141.61 34.7333 1142.01 34.2C1142.4 33.6613 1142.6 32.912 1142.6 31.952C1142.6 30.9867 1142.4 30.2347 1142.01 29.696C1141.61 29.1573 1141.01 28.888 1140.21 28.888C1139.81 28.888 1139.46 28.9573 1139.16 29.096C1138.86 29.2347 1138.61 29.4347 1138.41 29.696C1138.21 29.9573 1138.06 30.28 1137.96 30.664C1137.86 31.0427 1137.81 31.472 1137.81 31.952C1137.81 32.432 1137.86 32.8613 1137.96 33.24C1138.06 33.6187 1138.21 33.9387 1138.41 34.2C1138.61 34.456 1138.86 34.6533 1139.16 34.792C1139.46 34.9307 1139.81 35 1140.21 35ZM1146.14 36V29.112L1145.25 29.008C1145.14 28.9813 1145.04 28.9413 1144.97 28.888C1144.9 28.8293 1144.86 28.7467 1144.86 28.64V28.056H1146.14V27.272C1146.14 26.808 1146.21 26.3973 1146.34 26.04C1146.47 25.6773 1146.66 25.3733 1146.9 25.128C1147.14 24.8773 1147.43 24.688 1147.78 24.56C1148.12 24.432 1148.5 24.368 1148.93 24.368C1149.29 24.368 1149.63 24.4213 1149.94 24.528L1149.9 25.24C1149.9 25.3467 1149.85 25.4107 1149.77 25.432C1149.68 25.4533 1149.56 25.464 1149.41 25.464H1149.16C1148.91 25.464 1148.69 25.496 1148.49 25.56C1148.29 25.624 1148.12 25.728 1147.98 25.872C1147.83 26.016 1147.72 26.2053 1147.64 26.44C1147.57 26.6747 1147.53 26.9653 1147.53 27.312V28.056H1149.87V29.088H1147.58V36H1146.14ZM1157.52 27.768C1158 27.768 1158.45 27.8507 1158.86 28.016C1159.27 28.176 1159.63 28.4107 1159.92 28.72C1160.22 29.024 1160.46 29.4027 1160.62 29.856C1160.79 30.304 1160.88 30.816 1160.88 31.392C1160.88 31.616 1160.85 31.7653 1160.8 31.84C1160.76 31.9147 1160.67 31.952 1160.53 31.952H1155.14C1155.15 32.464 1155.22 32.9093 1155.35 33.288C1155.48 33.6667 1155.65 33.984 1155.88 34.24C1156.1 34.4907 1156.37 34.68 1156.68 34.808C1156.99 34.9307 1157.33 34.992 1157.72 34.992C1158.07 34.992 1158.38 34.952 1158.64 34.872C1158.9 34.7867 1159.12 34.696 1159.31 34.6C1159.5 34.504 1159.65 34.416 1159.77 34.336C1159.9 34.2507 1160.01 34.208 1160.1 34.208C1160.22 34.208 1160.31 34.2533 1160.37 34.344L1160.77 34.864C1160.6 35.0773 1160.39 35.264 1160.14 35.424C1159.9 35.5787 1159.63 35.7067 1159.35 35.808C1159.07 35.9093 1158.78 35.984 1158.48 36.032C1158.19 36.0853 1157.89 36.112 1157.6 36.112C1157.04 36.112 1156.52 36.0187 1156.04 35.832C1155.58 35.64 1155.17 35.3627 1154.82 35C1154.48 34.632 1154.21 34.1787 1154.02 33.64C1153.83 33.1013 1153.73 32.4827 1153.73 31.784C1153.73 31.2187 1153.82 30.6907 1153.99 30.2C1154.16 29.7093 1154.42 29.2853 1154.74 28.928C1155.07 28.5653 1155.46 28.2827 1155.93 28.08C1156.4 27.872 1156.93 27.768 1157.52 27.768ZM1157.55 28.816C1156.86 28.816 1156.32 29.016 1155.92 29.416C1155.53 29.8107 1155.28 30.36 1155.19 31.064H1159.6C1159.6 30.7333 1159.55 30.432 1159.46 30.16C1159.37 29.8827 1159.24 29.6453 1159.06 29.448C1158.88 29.2453 1158.67 29.0907 1158.41 28.984C1158.16 28.872 1157.87 28.816 1157.55 28.816ZM1164.11 31.848L1161.38 27.896H1162.75C1162.87 27.896 1162.95 27.9147 1163.01 27.952C1163.06 27.9893 1163.11 28.0427 1163.15 28.112L1165.13 31.152C1165.18 31.0027 1165.25 30.8533 1165.34 30.704L1167.09 28.144C1167.14 28.0693 1167.19 28.0107 1167.25 27.968C1167.3 27.92 1167.37 27.896 1167.45 27.896H1168.76L1166.03 31.768L1168.87 36H1167.5C1167.39 36 1167.29 35.9707 1167.22 35.912C1167.16 35.848 1167.11 35.7787 1167.06 35.704L1165.02 32.528C1164.99 32.6827 1164.93 32.8213 1164.85 32.944L1162.97 35.704C1162.91 35.7787 1162.85 35.848 1162.79 35.912C1162.73 35.9707 1162.65 36 1162.54 36H1161.27L1164.11 31.848ZM1170.28 38.744V27.896H1171.13C1171.33 27.896 1171.46 27.9947 1171.51 28.192L1171.63 29.152C1171.98 28.7307 1172.37 28.392 1172.81 28.136C1173.26 27.88 1173.78 27.752 1174.36 27.752C1174.82 27.752 1175.24 27.8427 1175.62 28.024C1176 28.2 1176.32 28.464 1176.59 28.816C1176.86 29.1627 1177.06 29.5947 1177.21 30.112C1177.35 30.6293 1177.42 31.224 1177.42 31.896C1177.42 32.4933 1177.34 33.0507 1177.18 33.568C1177.02 34.08 1176.79 34.5253 1176.49 34.904C1176.19 35.2773 1175.83 35.5733 1175.39 35.792C1174.96 36.0053 1174.47 36.112 1173.93 36.112C1173.42 36.112 1172.99 36.0293 1172.64 35.864C1172.29 35.6987 1171.97 35.464 1171.7 35.16V38.744H1170.28ZM1173.89 28.904C1173.42 28.904 1173.01 29.0107 1172.66 29.224C1172.31 29.4373 1171.99 29.7387 1171.7 30.128V34.048C1171.96 34.4 1172.25 34.648 1172.56 34.792C1172.87 34.936 1173.22 35.008 1173.61 35.008C1174.36 35.008 1174.94 34.7387 1175.34 34.2C1175.75 33.6613 1175.95 32.8933 1175.95 31.896C1175.95 31.368 1175.9 30.9147 1175.81 30.536C1175.71 30.1573 1175.58 29.848 1175.41 29.608C1175.23 29.3627 1175.01 29.184 1174.76 29.072C1174.5 28.96 1174.21 28.904 1173.89 28.904ZM1182.31 27.768C1182.8 27.768 1183.25 27.8507 1183.66 28.016C1184.07 28.176 1184.42 28.4107 1184.72 28.72C1185.02 29.024 1185.25 29.4027 1185.42 29.856C1185.59 30.304 1185.67 30.816 1185.67 31.392C1185.67 31.616 1185.65 31.7653 1185.6 31.84C1185.55 31.9147 1185.46 31.952 1185.33 31.952H1179.94C1179.95 32.464 1180.02 32.9093 1180.15 33.288C1180.27 33.6667 1180.45 33.984 1180.67 34.24C1180.9 34.4907 1181.16 34.68 1181.47 34.808C1181.78 34.9307 1182.13 34.992 1182.51 34.992C1182.87 34.992 1183.18 34.952 1183.43 34.872C1183.69 34.7867 1183.92 34.696 1184.11 34.6C1184.29 34.504 1184.45 34.416 1184.57 34.336C1184.7 34.2507 1184.81 34.208 1184.9 34.208C1185.01 34.208 1185.11 34.2533 1185.17 34.344L1185.57 34.864C1185.39 35.0773 1185.18 35.264 1184.94 35.424C1184.69 35.5787 1184.43 35.7067 1184.15 35.808C1183.87 35.9093 1183.58 35.984 1183.28 36.032C1182.98 36.0853 1182.69 36.112 1182.39 36.112C1181.83 36.112 1181.32 36.0187 1180.84 35.832C1180.37 35.64 1179.96 35.3627 1179.62 35C1179.28 34.632 1179.01 34.1787 1178.82 33.64C1178.63 33.1013 1178.53 32.4827 1178.53 31.784C1178.53 31.2187 1178.61 30.6907 1178.79 30.2C1178.96 29.7093 1179.21 29.2853 1179.54 28.928C1179.86 28.5653 1180.26 28.2827 1180.73 28.08C1181.2 27.872 1181.73 27.768 1182.31 27.768ZM1182.35 28.816C1181.66 28.816 1181.12 29.016 1180.72 29.416C1180.33 29.8107 1180.08 30.36 1179.99 31.064H1184.39C1184.39 30.7333 1184.35 30.432 1184.26 30.16C1184.17 29.8827 1184.03 29.6453 1183.86 29.448C1183.68 29.2453 1183.47 29.0907 1183.21 28.984C1182.96 28.872 1182.67 28.816 1182.35 28.816ZM1187.5 36V27.896H1188.31C1188.47 27.896 1188.57 27.9253 1188.63 27.984C1188.69 28.0427 1188.73 28.144 1188.75 28.288L1188.85 29.552C1189.13 28.9867 1189.47 28.5467 1189.87 28.232C1190.28 27.912 1190.76 27.752 1191.31 27.752C1191.54 27.752 1191.74 27.7787 1191.92 27.832C1192.1 27.88 1192.27 27.9493 1192.42 28.04L1192.24 29.104C1192.2 29.2373 1192.12 29.304 1191.99 29.304C1191.92 29.304 1191.8 29.28 1191.65 29.232C1191.49 29.1787 1191.28 29.152 1191 29.152C1190.5 29.152 1190.09 29.296 1189.75 29.584C1189.42 29.872 1189.14 30.2907 1188.92 30.84V36H1187.5ZM1195.53 27.896V36H1194.11V27.896H1195.53ZM1195.85 25.352C1195.85 25.4907 1195.82 25.6213 1195.77 25.744C1195.71 25.8613 1195.64 25.968 1195.54 26.064C1195.45 26.1547 1195.34 26.2267 1195.22 26.28C1195.1 26.3333 1194.97 26.36 1194.83 26.36C1194.69 26.36 1194.56 26.3333 1194.44 26.28C1194.32 26.2267 1194.21 26.1547 1194.12 26.064C1194.03 25.968 1193.95 25.8613 1193.9 25.744C1193.85 25.6213 1193.82 25.4907 1193.82 25.352C1193.82 25.2133 1193.85 25.0827 1193.9 24.96C1193.95 24.832 1194.03 24.7227 1194.12 24.632C1194.21 24.536 1194.32 24.4613 1194.44 24.408C1194.56 24.3547 1194.69 24.328 1194.83 24.328C1194.97 24.328 1195.1 24.3547 1195.22 24.408C1195.34 24.4613 1195.45 24.536 1195.54 24.632C1195.64 24.7227 1195.71 24.832 1195.77 24.96C1195.82 25.0827 1195.85 25.2133 1195.85 25.352ZM1201.25 27.768C1201.74 27.768 1202.18 27.8507 1202.6 28.016C1203.01 28.176 1203.36 28.4107 1203.66 28.72C1203.96 29.024 1204.19 29.4027 1204.36 29.856C1204.53 30.304 1204.61 30.816 1204.61 31.392C1204.61 31.616 1204.59 31.7653 1204.54 31.84C1204.49 31.9147 1204.4 31.952 1204.27 31.952H1198.88C1198.89 32.464 1198.96 32.9093 1199.08 33.288C1199.21 33.6667 1199.39 33.984 1199.61 34.24C1199.84 34.4907 1200.1 34.68 1200.41 34.808C1200.72 34.9307 1201.07 34.992 1201.45 34.992C1201.81 34.992 1202.12 34.952 1202.37 34.872C1202.63 34.7867 1202.86 34.696 1203.04 34.6C1203.23 34.504 1203.38 34.416 1203.51 34.336C1203.64 34.2507 1203.74 34.208 1203.84 34.208C1203.95 34.208 1204.04 34.2533 1204.11 34.344L1204.51 34.864C1204.33 35.0773 1204.12 35.264 1203.88 35.424C1203.63 35.5787 1203.37 35.7067 1203.08 35.808C1202.81 35.9093 1202.52 35.984 1202.22 36.032C1201.92 36.0853 1201.62 36.112 1201.33 36.112C1200.77 36.112 1200.25 36.0187 1199.78 35.832C1199.31 35.64 1198.9 35.3627 1198.56 35C1198.21 34.632 1197.95 34.1787 1197.76 33.64C1197.56 33.1013 1197.47 32.4827 1197.47 31.784C1197.47 31.2187 1197.55 30.6907 1197.72 30.2C1197.9 29.7093 1198.15 29.2853 1198.48 28.928C1198.8 28.5653 1199.2 28.2827 1199.67 28.08C1200.14 27.872 1200.66 27.768 1201.25 27.768ZM1201.28 28.816C1200.6 28.816 1200.05 29.016 1199.66 29.416C1199.26 29.8107 1199.02 30.36 1198.92 31.064H1203.33C1203.33 30.7333 1203.29 30.432 1203.2 30.16C1203.1 29.8827 1202.97 29.6453 1202.8 29.448C1202.62 29.2453 1202.4 29.0907 1202.15 28.984C1201.9 28.872 1201.61 28.816 1201.28 28.816ZM1206.43 36V27.896H1207.28C1207.48 27.896 1207.61 27.9947 1207.67 28.192L1207.78 29.072C1208.13 28.6827 1208.52 28.368 1208.95 28.128C1209.39 27.888 1209.89 27.768 1210.47 27.768C1210.91 27.768 1211.3 27.8427 1211.63 27.992C1211.97 28.136 1212.26 28.344 1212.48 28.616C1212.71 28.8827 1212.88 29.2053 1213 29.584C1213.12 29.9627 1213.18 30.3813 1213.18 30.84V36H1211.75V30.84C1211.75 30.2267 1211.61 29.752 1211.33 29.416C1211.05 29.0747 1210.63 28.904 1210.05 28.904C1209.63 28.904 1209.23 29.0053 1208.87 29.208C1208.5 29.4107 1208.17 29.6853 1207.86 30.032V36H1206.43ZM1220.85 29.336C1220.81 29.3947 1220.77 29.44 1220.72 29.472C1220.68 29.504 1220.62 29.52 1220.54 29.52C1220.46 29.52 1220.37 29.488 1220.28 29.424C1220.19 29.3547 1220.07 29.28 1219.92 29.2C1219.78 29.12 1219.6 29.048 1219.4 28.984C1219.19 28.9147 1218.94 28.88 1218.64 28.88C1218.25 28.88 1217.9 28.952 1217.6 29.096C1217.29 29.2347 1217.04 29.4373 1216.83 29.704C1216.63 29.9707 1216.47 30.2933 1216.36 30.672C1216.26 31.0507 1216.21 31.4747 1216.21 31.944C1216.21 32.4347 1216.27 32.872 1216.38 33.256C1216.49 33.6347 1216.65 33.9547 1216.85 34.216C1217.05 34.472 1217.3 34.6693 1217.59 34.808C1217.88 34.9413 1218.21 35.008 1218.57 35.008C1218.92 35.008 1219.2 34.968 1219.43 34.888C1219.65 34.8027 1219.84 34.7093 1219.99 34.608C1220.14 34.5067 1220.26 34.416 1220.36 34.336C1220.45 34.2507 1220.55 34.208 1220.64 34.208C1220.77 34.208 1220.86 34.2533 1220.92 34.344L1221.32 34.864C1220.96 35.296 1220.52 35.6133 1220 35.816C1219.47 36.0133 1218.91 36.112 1218.32 36.112C1217.82 36.112 1217.35 36.0187 1216.91 35.832C1216.48 35.6453 1216.1 35.376 1215.78 35.024C1215.46 34.6667 1215.21 34.2293 1215.02 33.712C1214.84 33.1947 1214.75 32.6053 1214.75 31.944C1214.75 31.3413 1214.83 30.784 1215 30.272C1215.17 29.76 1215.41 29.32 1215.73 28.952C1216.06 28.5787 1216.46 28.288 1216.93 28.08C1217.41 27.872 1217.95 27.768 1218.56 27.768C1219.13 27.768 1219.63 27.8613 1220.07 28.048C1220.51 28.2293 1220.89 28.488 1221.23 28.824L1220.85 29.336ZM1226 27.768C1226.49 27.768 1226.93 27.8507 1227.35 28.016C1227.76 28.176 1228.11 28.4107 1228.41 28.72C1228.71 29.024 1228.94 29.4027 1229.11 29.856C1229.28 30.304 1229.36 30.816 1229.36 31.392C1229.36 31.616 1229.34 31.7653 1229.29 31.84C1229.24 31.9147 1229.15 31.952 1229.02 31.952H1223.62C1223.64 32.464 1223.71 32.9093 1223.83 33.288C1223.96 33.6667 1224.14 33.984 1224.36 34.24C1224.59 34.4907 1224.85 34.68 1225.16 34.808C1225.47 34.9307 1225.82 34.992 1226.2 34.992C1226.56 34.992 1226.87 34.952 1227.12 34.872C1227.38 34.7867 1227.61 34.696 1227.79 34.6C1227.98 34.504 1228.13 34.416 1228.26 34.336C1228.39 34.2507 1228.49 34.208 1228.59 34.208C1228.7 34.208 1228.79 34.2533 1228.86 34.344L1229.26 34.864C1229.08 35.0773 1228.87 35.264 1228.63 35.424C1228.38 35.5787 1228.12 35.7067 1227.83 35.808C1227.56 35.9093 1227.27 35.984 1226.97 36.032C1226.67 36.0853 1226.37 36.112 1226.08 36.112C1225.52 36.112 1225 36.0187 1224.53 35.832C1224.06 35.64 1223.65 35.3627 1223.31 35C1222.96 34.632 1222.7 34.1787 1222.51 33.64C1222.31 33.1013 1222.22 32.4827 1222.22 31.784C1222.22 31.2187 1222.3 30.6907 1222.47 30.2C1222.65 29.7093 1222.9 29.2853 1223.23 28.928C1223.55 28.5653 1223.95 28.2827 1224.42 28.08C1224.89 27.872 1225.41 27.768 1226 27.768ZM1226.03 28.816C1225.35 28.816 1224.8 29.016 1224.41 29.416C1224.01 29.8107 1223.77 30.36 1223.67 31.064H1228.08C1228.08 30.7333 1228.04 30.432 1227.95 30.16C1227.85 29.8827 1227.72 29.6453 1227.55 29.448C1227.37 29.2453 1227.15 29.0907 1226.9 28.984C1226.65 28.872 1226.36 28.816 1226.03 28.816Z" fill="#1E212C"/>
</svg>
